<?xml version="1.0" encoding="utf-8"?>
<!-- Generator: Adobe Illustrator 27.5.0, SVG Export Plug-In . SVG Version: 6.00 Build 0)  -->
<svg version="1.1" xmlns="http://www.w3.org/2000/svg" xmlns:xlink="http://www.w3.org/1999/xlink" x="0px" y="0px"
	 viewBox="0 0 800 800" style="enable-background:new 0 0 800 800;" xml:space="preserve">
<g id="background">
</g>
<g id="object">
	<g>
		<g>
			<path style="fill:#0F3041;" d="M545.85,497.959c0.788-7.206,1.623-13.549,2.261-19.333H319.894
				c0.444,31.583,10.649,65.736,22.289,94c15.554,37.77-17.333,126-17.333,126l125.667,64.333c0,0-16.667-105,7.333-114.666
				c24-9.666,61,5.666,76.667-4c15.667-9.666,7-25.334,2.334-34.667c-4.666-9.333,8.999-7,10.333-13c1.334-6-5.333-13-5.333-13
				s6.999-2,7.666-7.333c0.667-5.333-7.333-8-5.333-14s20.666-0.334,25.333-12.667C574.183,537.293,544.567,509.684,545.85,497.959z
				"/>
			<path style="fill:#0F3041;" d="M115.485,389.261c-2.937,22.772-13.521,72.522,85.472,121.388
				c57.96,28.609,96.753,7.023,122.187-30.363L136.272,349.284C124.844,362.28,117.685,372.219,115.485,389.261z"/>
		</g>
	</g>
	<g>
		<g>
			<path style="fill:#F05C42;" d="M433.77,440.159h-0.129l0.129,0.129l-0.129-0.129v24.188c6.685-0.048,12.723-2.82,17.057-7.26
				L433.77,440.159z"/>
			<path style="fill:#6CAD7E;" d="M409.393,440.272c0,13.297,10.779,24.076,24.076,24.076c0.057,0,0.115-0.002,0.173-0.002v-24.188
				h-24.247C409.395,440.196,409.393,440.235,409.393,440.272z"/>
			<path style="fill:#0F3041;" d="M433.642,416.199c-0.058,0-0.116-0.003-0.173-0.003c-3.787,0-7.371,0.877-10.559,2.437
				l10.731,21.269V416.199z"/>
			<path style="fill:#0C8485;" d="M422.91,418.633c-2.346,1.147-4.478,2.663-6.321,4.474c-4.414,4.344-7.163,10.376-7.194,17.053
				h24.247v-0.258L422.91,418.633z"/>
			<path style="fill:#FAAE3E;" d="M457.543,440.159c-0.061-13.188-10.723-23.867-23.901-23.96v23.96h0.129l16.928,16.928
				c4.236-4.34,6.846-10.272,6.846-16.814C457.544,440.235,457.543,440.196,457.543,440.159z"/>
		</g>
		<g>
			<g>
				<path style="fill:#0C8485;" d="M420.347,207.423h-19.769l-9.884-17.121l9.884-17.12h19.769l9.885,17.12L420.347,207.423z
					 M401.414,205.975h18.098l9.048-15.673l-9.048-15.672h-18.098l-9.049,15.672L401.414,205.975z"/>
			</g>
			<g>
				<path style="fill:#0C8485;" d="M448.566,190.535h-19.77l-9.884-17.12l9.884-17.12h19.77l9.883,17.12L448.566,190.535z
					 M429.633,189.087h18.097l9.049-15.672l-9.049-15.672h-18.097l-9.049,15.672L429.633,189.087z"/>
				<g>
					<g>
						<path style="fill:#F05C42;" d="M433.444,157.019c0,2.474-2.006,4.48-4.48,4.48c-2.473,0-4.479-2.006-4.479-4.48
							c0-2.474,2.006-4.48,4.479-4.48C431.438,152.539,433.444,154.545,433.444,157.019z"/>
						<path style="fill:#F05C42;" d="M452.328,157.019c0,2.474-2.006,4.48-4.479,4.48c-2.475,0-4.48-2.006-4.48-4.48
							c0-2.474,2.006-4.48,4.48-4.48C450.322,152.539,452.328,154.545,452.328,157.019z"/>
						<path style="fill:#F05C42;" d="M424.43,173.829c0,2.474-2.006,4.48-4.48,4.48c-2.474,0-4.479-2.005-4.479-4.48
							c0-2.474,2.006-4.48,4.479-4.48C422.424,169.349,424.43,171.355,424.43,173.829z"/>
					</g>
				</g>
			</g>
			<g>
				<path style="fill:#0C8485;" d="M477.257,206.739h-19.77l-9.883-17.121l9.883-17.119h19.77l9.884,17.119L477.257,206.739z
					 M458.323,205.292h18.098l9.049-15.673l-9.049-15.672h-18.098l-9.048,15.672L458.323,205.292z"/>
				<g>
					<g>
						<path style="fill:#F05C42;" d="M462.136,173.223c0,2.474-2.006,4.48-4.479,4.48c-2.474,0-4.48-2.005-4.48-4.48
							c0-2.475,2.007-4.479,4.48-4.479C460.13,168.744,462.136,170.749,462.136,173.223z"/>
						<path style="fill:#F05C42;" d="M481.02,173.223c0,2.474-2.006,4.48-4.48,4.48s-4.479-2.005-4.479-4.48
							c0-2.475,2.005-4.479,4.479-4.479S481.02,170.749,481.02,173.223z"/>
						<path style="fill:#F05C42;" d="M490.785,188.936c0,2.474-2.006,4.479-4.48,4.479c-2.474,0-4.478-2.005-4.478-4.479
							c0-2.474,2.005-4.48,4.478-4.48C488.779,184.456,490.785,186.462,490.785,188.936z"/>
						<path style="fill:#F05C42;" d="M481.02,206.016c0,2.474-2.006,4.48-4.48,4.48s-4.479-2.006-4.479-4.48
							c0-2.474,2.005-4.479,4.479-4.479S481.02,203.542,481.02,206.016z"/>
						<path style="fill:#F05C42;" d="M462.603,206.016c0,2.474-2.006,4.48-4.48,4.48c-2.475,0-4.479-2.006-4.479-4.48
							c0-2.474,2.005-4.479,4.479-4.479C460.598,201.536,462.603,203.542,462.603,206.016z"/>
						<path style="fill:#F05C42;" d="M453.121,190.033c0,2.474-2.007,4.48-4.48,4.48c-2.475,0-4.479-2.006-4.479-4.48
							s2.005-4.479,4.479-4.479C451.114,185.553,453.121,187.559,453.121,190.033z"/>
					</g>
				</g>
				<path style="fill:#0C8485;" d="M473.755,200.674h-12.766l-6.382-11.056l6.382-11.055h12.766l6.382,11.055L473.755,200.674z
					 M461.653,199.525h11.439l5.719-9.907l-5.719-9.906h-11.439l-5.72,9.906L461.653,199.525z"/>
				<path style="fill:#0C8485;" d="M445.063,184.47h-12.765l-6.384-11.055l6.384-11.055h12.765l6.384,11.055L445.063,184.47z
					 M432.962,183.321H444.4l5.72-9.906l-5.72-9.906h-11.439l-5.719,9.906L432.962,183.321z"/>
				<path style="fill:#0C8485;" d="M417.106,201.806H404.34l-6.383-11.055l6.383-11.055h12.767l6.382,11.055L417.106,201.806z
					 M405.003,200.656h11.439l5.72-9.906l-5.72-9.906h-11.439l-5.719,9.906L405.003,200.656z"/>
			</g>
			<g>
				<g>
					<path style="fill:#F05C42;" d="M405.226,173.906c0,2.474-2.005,4.479-4.479,4.479c-2.474,0-4.48-2.006-4.48-4.479
						c0-2.474,2.007-4.48,4.48-4.48C403.221,169.426,405.226,171.432,405.226,173.906z"/>
					<circle style="fill:#F05C42;" cx="419.63" cy="206.699" r="4.479"/>
					<path style="fill:#F05C42;" d="M405.226,206.699c0,2.474-2.005,4.48-4.479,4.48c-2.474,0-4.48-2.005-4.48-4.48
						c0-2.474,2.007-4.48,4.48-4.48C403.221,202.219,405.226,204.225,405.226,206.699z"/>
					<path style="fill:#F05C42;" d="M396.418,190.302c0,2.474-2.007,4.48-4.48,4.48s-4.479-2.006-4.479-4.48
						c0-2.474,2.006-4.479,4.479-4.479S396.418,187.829,396.418,190.302z"/>
					<path style="fill:#F05C42;" d="M433.875,189.619c0,3.026-1.454,4.48-4.48,4.48c-2.474,0-4.478-2.005-4.478-4.48
						c0-2.474,2.005-4.479,4.478-4.479S433.875,187.145,433.875,189.619z"/>
				</g>
			</g>
		</g>
		<g>
			<rect x="533.373" y="70.151" style="fill:#F05C42;" width="2.354" height="57.292"/>
			<rect x="535.727" y="70.328" style="fill:#FFFFFF;" width="41.158" height="7.692"/>
			<path style="fill:#F05C42;" d="M574.048,130.003c-3.064,0-40.675,0-40.675,0V77.61h43.513v49.359
				C576.886,126.969,577.111,130.003,574.048,130.003z"/>
			<rect x="533.373" y="77.61" style="fill:#0F3041;" width="6.961" height="52.393"/>
			<rect x="533.373" y="69.29" style="fill:#F05C42;" width="43.513" height="1.256"/>
			<g>
				<path style="fill:#FFFFFF;" d="M553.894,108.516l-2.461,7.457h-3.167l8.056-23.708h3.693l8.091,23.708h-3.271l-2.533-7.457
					H553.894z M561.668,106.123l-2.32-6.824c-0.528-1.548-0.88-2.955-1.23-4.327h-0.071c-0.353,1.407-0.739,2.85-1.196,4.292
					l-2.322,6.859H561.668z"/>
			</g>
		</g>
		<g>
			<g>
				<path style="fill:#F1E4C4;" d="M609.021,206.809c0.619,0.619,1.63,0.619,2.25,0l4.798-4.799c0.618-0.618,0.618-1.63,0-2.249
					l-3.519-3.52c-0.619-0.619-1.63-0.619-2.249,0l-4.799,4.799c-0.617,0.618-0.617,1.63,0,2.249L609.021,206.809z"/>
				
					<rect x="597.904" y="167.425" transform="matrix(0.7069 -0.7073 0.7073 0.7069 44.396 478.5525)" style="fill:#E19626;" width="3.407" height="36.568"/>
				
					<rect x="595.585" y="169.744" transform="matrix(0.707 -0.7073 0.7073 0.707 42.046 477.534)" style="fill:#D64329;" width="3.407" height="36.568"/>
				
					<rect x="593.266" y="172.064" transform="matrix(0.707 -0.7072 0.7072 0.707 39.72 476.562)" style="fill:#E19626;" width="3.407" height="36.567"/>
				<polygon style="fill:#D64329;" points="577.727,170.973 580.233,168.466 576.009,166.748 				"/>
				<polygon style="fill:#F1E4C4;" points="580.837,178.624 587.883,171.576 580.233,168.466 577.727,170.973 				"/>
			</g>
			<g>
				<path style="fill:#F1E4C4;" d="M576.471,199.762c-0.616,0.618-0.616,1.63,0,2.248l4.8,4.799c0.619,0.619,1.63,0.619,2.249,0
					l3.52-3.52c0.618-0.618,0.618-1.63,0-2.249l-4.799-4.799c-0.618-0.618-1.63-0.618-2.248,0L576.471,199.762z"/>
				
					<rect x="579.289" y="188.644" transform="matrix(0.7072 -0.707 0.707 0.7072 40.3753 478.1949)" style="fill:#FAAE3E;" width="36.567" height="3.407"/>
				
					<rect x="576.969" y="186.325" transform="matrix(0.7073 -0.707 0.707 0.7073 41.3297 475.8644)" style="fill:#0C8485;" width="36.568" height="3.407"/>
				
					<rect x="574.65" y="184.006" transform="matrix(0.7073 -0.707 0.707 0.7073 42.2904 473.5466)" style="fill:#FAAE3E;" width="36.568" height="3.407"/>
				<polygon style="fill:#0C8485;" points="612.309,168.466 614.815,170.973 616.533,166.748 				"/>
				<polygon style="fill:#F1E4C4;" points="604.659,171.576 611.705,178.624 614.815,170.973 612.309,168.466 				"/>
			</g>
		</g>
		<g>
			<path style="fill:#0C8485;" d="M679.672,183.393c0,12.127-10.683,21.96-23.86,21.96c-6.862,0-23.862,0-23.862,0s0-16.146,0-21.96
				c0-12.128,10.684-21.959,23.862-21.959C668.989,161.434,679.672,171.265,679.672,183.393z"/>
			<g>
				<path style="fill:#FFFFFF;" d="M669.271,177.576c0,1.204-0.977,2.181-2.182,2.181h-22.555c-1.206,0-2.183-0.977-2.183-2.181l0,0
					c0-1.205,0.977-2.181,2.183-2.181h22.555C668.294,175.395,669.271,176.372,669.271,177.576L669.271,177.576z"/>
				<path style="fill:#FFFFFF;" d="M669.271,185.003c0,1.204-0.977,2.181-2.182,2.181h-22.555c-1.206,0-2.183-0.977-2.183-2.181l0,0
					c0-1.205,0.977-2.181,2.183-2.181h22.555C668.294,182.822,669.271,183.798,669.271,185.003L669.271,185.003z"/>
				<path style="fill:#FFFFFF;" d="M669.271,192.43c0,1.204-0.977,2.181-2.182,2.181h-22.555c-1.206,0-2.183-0.977-2.183-2.181l0,0
					c0-1.205,0.977-2.181,2.183-2.181h22.555C668.294,190.249,669.271,191.226,669.271,192.43L669.271,192.43z"/>
			</g>
		</g>
		<g>
			<path style="fill:#F1E4C4;" d="M271.711,167.069c0,1.802-1.461,3.261-3.263,3.261h-32.013c-1.801,0-3.261-1.459-3.261-3.261
				v-45.33c0-1.801,1.46-3.262,3.261-3.262h32.013c1.802,0,3.263,1.461,3.263,3.262V167.069z"/>
			<path style="fill:#0F3041;" d="M243.417,149.626c0,0.498-0.404,0.902-0.902,0.902h-4.781c-0.498,0-0.902-0.404-0.902-0.902
				v-4.782c0-0.498,0.404-0.902,0.902-0.902h4.781c0.498,0,0.902,0.404,0.902,0.902V149.626z"/>
			<path style="fill:#FFFFFF;" d="M268.827,130.885c0,0.53-0.431,0.959-0.96,0.959h-30.848c-0.529,0-0.959-0.429-0.959-0.959v-5.084
				c0-0.531,0.43-0.96,0.959-0.96h30.848c0.529,0,0.96,0.429,0.96,0.96V130.885z"/>
			<path style="fill:#0F3041;" d="M251.579,149.626c0,0.498-0.405,0.902-0.903,0.902h-4.781c-0.498,0-0.903-0.404-0.903-0.902
				v-4.782c0-0.498,0.405-0.902,0.903-0.902h4.781c0.498,0,0.903,0.404,0.903,0.902V149.626z"/>
			<path style="fill:#0F3041;" d="M259.74,149.626c0,0.498-0.405,0.902-0.903,0.902h-4.781c-0.498,0-0.902-0.404-0.902-0.902v-4.782
				c0-0.498,0.404-0.902,0.902-0.902h4.781c0.498,0,0.903,0.404,0.903,0.902V149.626z"/>
			<path style="fill:#0F3041;" d="M267.901,149.626c0,0.498-0.404,0.902-0.902,0.902h-4.78c-0.499,0-0.903-0.404-0.903-0.902v-4.782
				c0-0.498,0.404-0.902,0.903-0.902h4.78c0.498,0,0.902,0.404,0.902,0.902V149.626z"/>
			<path style="fill:#0F3041;" d="M243.417,141.997c0,0.499-0.404,0.903-0.902,0.903h-4.781c-0.498,0-0.902-0.404-0.902-0.903v-4.78
				c0-0.499,0.404-0.903,0.902-0.903h4.781c0.498,0,0.902,0.404,0.902,0.903V141.997z"/>
			<path style="fill:#0F3041;" d="M251.579,141.997c0,0.499-0.405,0.903-0.903,0.903h-4.781c-0.498,0-0.903-0.404-0.903-0.903v-4.78
				c0-0.499,0.405-0.903,0.903-0.903h4.781c0.498,0,0.903,0.404,0.903,0.903V141.997z"/>
			<path style="fill:#0F3041;" d="M259.74,141.997c0,0.499-0.405,0.903-0.903,0.903h-4.781c-0.498,0-0.902-0.404-0.902-0.903v-4.78
				c0-0.499,0.404-0.903,0.902-0.903h4.781c0.498,0,0.903,0.404,0.903,0.903V141.997z"/>
			<path style="fill:#0F3041;" d="M267.901,141.997c0,0.499-0.404,0.903-0.902,0.903h-4.78c-0.499,0-0.903-0.404-0.903-0.903v-4.78
				c0-0.499,0.404-0.903,0.903-0.903h4.78c0.498,0,0.902,0.404,0.902,0.903V141.997z"/>
			<path style="fill:#0F3041;" d="M243.417,157.324c0,0.499-0.404,0.902-0.902,0.902h-4.781c-0.498,0-0.902-0.404-0.902-0.902
				v-4.782c0-0.498,0.404-0.903,0.902-0.903h4.781c0.498,0,0.902,0.405,0.902,0.903V157.324z"/>
			<path style="fill:#0F3041;" d="M251.579,157.324c0,0.499-0.405,0.902-0.903,0.902h-4.781c-0.498,0-0.903-0.404-0.903-0.902
				v-4.782c0-0.498,0.405-0.903,0.903-0.903h4.781c0.498,0,0.903,0.405,0.903,0.903V157.324z"/>
			<path style="fill:#0F3041;" d="M259.74,157.324c0,0.499-0.405,0.902-0.903,0.902h-4.781c-0.498,0-0.902-0.404-0.902-0.902v-4.782
				c0-0.498,0.404-0.903,0.902-0.903h4.781c0.498,0,0.903,0.405,0.903,0.903V157.324z"/>
			<path style="fill:#0F3041;" d="M243.417,165.02c0,0.5-0.404,0.903-0.902,0.903h-4.781c-0.498,0-0.902-0.403-0.902-0.903v-4.782
				c0-0.498,0.404-0.901,0.902-0.901h4.781c0.498,0,0.902,0.403,0.902,0.901V165.02z"/>
			<path style="fill:#0F3041;" d="M251.579,165.02c0,0.5-0.405,0.903-0.903,0.903h-4.781c-0.498,0-0.903-0.403-0.903-0.903v-4.782
				c0-0.498,0.405-0.901,0.903-0.901h4.781c0.498,0,0.903,0.403,0.903,0.901V165.02z"/>
			<path style="fill:#0F3041;" d="M259.74,165.02c0,0.5-0.405,0.903-0.903,0.903h-4.781c-0.498,0-0.902-0.403-0.902-0.903v-4.782
				c0-0.498,0.404-0.901,0.902-0.901h4.781c0.498,0,0.903,0.403,0.903,0.901V165.02z"/>
			<path style="fill:#D64329;" d="M267.901,155.183v-2.641c0-0.498-0.404-0.903-0.902-0.903h-4.781
				c-0.498,0-0.902,0.405-0.902,0.903v2.643v2.139v7.697c0,0.5,0.404,0.903,0.902,0.903h4.781c0.498,0,0.902-0.403,0.902-0.903
				v-9.836C267.901,155.184,267.901,155.183,267.901,155.183z"/>
		</g>
		<g>
			<path style="fill:#FAAE3E;" d="M304.457,162.347l-2.841,8.604h-3.652l9.294-27.354h4.261l9.334,27.354h-3.773l-2.923-8.604
				H304.457z M313.427,159.587l-2.68-7.873c-0.608-1.786-1.013-3.409-1.42-4.991h-0.081c-0.405,1.623-0.852,3.286-1.38,4.95
				l-2.679,7.914H313.427z"/>
			<path style="fill:#F05C42;" d="M324.873,143.963c1.542-0.325,3.977-0.568,6.452-0.568c3.531,0,5.803,0.608,7.509,1.988
				c1.42,1.055,2.271,2.679,2.271,4.829c0,2.639-1.744,4.951-4.625,6.007v0.08c2.597,0.649,5.641,2.801,5.641,6.86
				c0,2.354-0.935,4.139-2.313,5.478c-1.906,1.745-4.99,2.557-9.456,2.557c-2.435,0-4.302-0.162-5.478-0.324V143.963z
				 M328.403,155.163h3.206c3.734,0,5.925-1.947,5.925-4.586c0-3.206-2.436-4.463-6.006-4.463c-1.624,0-2.558,0.12-3.125,0.243
				V155.163z M328.403,168.271c0.69,0.121,1.704,0.163,2.963,0.163c3.652,0,7.021-1.34,7.021-5.316c0-3.734-3.206-5.276-7.062-5.276
				h-2.922V168.271z"/>
			<path style="fill:#0C8485;" d="M365.984,170.057c-1.299,0.65-3.896,1.299-7.225,1.299c-7.711,0-13.514-4.869-13.514-13.839
				c0-8.563,5.803-14.365,14.284-14.365c3.409,0,5.561,0.73,6.494,1.217l-0.852,2.881c-1.339-0.648-3.247-1.135-5.521-1.135
				c-6.412,0-10.674,4.098-10.674,11.281c0,6.696,3.855,10.997,10.512,10.997c2.15,0,4.344-0.446,5.764-1.135L365.984,170.057z"/>
		</g>
		<g>
			<path style="fill:#F1E4C4;" d="M518.657,137.944l-14.41-29.796c0,0,0.13-7.744,0.13-10.993c0-3.248-2.343-3.248-3.77-3.248
				c-1.425,0-5.663,0-6.652,0c-0.99,0-2.818-0.278-2.818,3.247c0,3.804,0.131,10.994,0.131,10.994l-14.411,29.796
				c-1.968,4.273,0.273,7.771,4.979,7.771h15.922h15.922C518.385,145.714,520.625,142.217,518.657,137.944z"/>
			<path style="fill:#FAAE3E;" d="M508.79,125.514c-7.316,1.111-13.911-2.899-20.554-3.177l-6.639,13.944
				c-1.521,3.305,0.211,6.009,3.85,6.009h12.309h12.31c3.639,0,5.37-2.704,3.85-6.009L508.79,125.514z"/>
			<path style="fill:#DED2B5;" d="M490.41,136.383c0,1.488-1.206,2.694-2.693,2.694s-2.691-1.206-2.691-2.694
				c0-1.486,1.204-2.692,2.691-2.692S490.41,134.897,490.41,136.383z"/>
			<path style="fill:#DED2B5;" d="M510.431,137.443c0,1.241-1.007,2.248-2.248,2.248c-1.24,0-2.246-1.007-2.246-2.248
				c0-1.24,1.006-2.247,2.246-2.247C509.424,135.196,510.431,136.203,510.431,137.443z"/>
			<path style="fill:#DED2B5;" d="M496.324,130.066c0,1.241-1.006,2.247-2.247,2.247c-1.242,0-2.248-1.006-2.248-2.247
				s1.006-2.248,2.248-2.248C495.318,127.818,496.324,128.825,496.324,130.066z"/>
			<path style="fill:#DED2B5;" d="M501.401,136.077c0,1.077-0.873,1.951-1.952,1.951c-1.077,0-1.95-0.874-1.95-1.951
				c0-1.077,0.873-1.95,1.95-1.95C500.528,134.126,501.401,134.999,501.401,136.077z"/>
			<path style="fill:#DED2B5;" d="M506.232,130.581c0,1.077-0.873,1.951-1.95,1.951c-1.078,0-1.95-0.874-1.95-1.951
				c0-1.077,0.872-1.951,1.95-1.951C505.359,128.63,506.232,129.504,506.232,130.581z"/>
		</g>
		<path style="fill:#F05C42;" d="M391.3,97.044c-5.922-1.92-12.289,1.284-14.321,7.164c-2.031-5.886-8.398-9.085-14.321-7.164
			c-5.991,1.951-9.259,8.398-7.313,14.414c1.869,5.736,19.213,21.097,21.434,21.097c2.219,0,19.95-15.343,21.819-21.097
			C400.55,105.429,397.286,98.983,391.3,97.044z"/>
		<g>
			<path style="fill:#F05C42;" d="M510.431,236.624c-7.608-4.172-19.263-0.252-19.263,11.759c0,9.381,5.748,18.821,12.84,18.821
				c2.635,0,4.737-0.748,6.423-2.004c1.684,1.257,3.788,2.004,6.421,2.004c7.094,0,12.842-9.439,12.842-18.821
				C529.693,236.372,518.039,232.452,510.431,236.624z"/>
			<path style="fill:#0F3041;" d="M510.39,236.74l2.3-0.975c0-0.037,0.056-3.642,2.561-4.288c2.505-0.645,1.791-2.892-0.523-2.239
				C509.875,230.607,510.39,236.516,510.39,236.74z"/>
			<path style="fill:#6CAD7E;" d="M510.641,231.986c1.816-5.288-3.041-6.23-9.355-7.051
				C497.288,233.326,508.826,237.274,510.641,231.986z"/>
		</g>
		<g>
			<path style="fill:#F05C42;" d="M387.819,407.845c-5.229-2.866-13.237-0.173-13.237,8.081c0,6.447,3.95,12.934,8.823,12.934
				c1.81,0,3.256-0.514,4.414-1.377c1.157,0.863,2.604,1.377,4.412,1.377c4.875,0,8.825-6.486,8.825-12.934
				C401.057,407.672,393.048,404.978,387.819,407.845z"/>
			<path style="fill:#0F3041;" d="M387.791,407.925l1.58-0.67c0-0.024,0.039-2.503,1.761-2.946c1.722-0.443,1.231-1.986-0.359-1.539
				C387.438,403.709,387.791,407.772,387.791,407.925z"/>
			<path style="fill:#6CAD7E;" d="M387.964,404.657c1.247-3.634-2.09-4.282-6.43-4.845
				C378.788,405.578,386.717,408.291,387.964,404.657z"/>
		</g>
		<g>
			<polygon style="fill:#0F3041;" points="351.911,215.289 349.84,214.802 355.478,190.799 380.28,196.624 379.794,198.696 
				357.063,193.356 			"/>
			<path style="fill:#F05C42;" d="M363.219,193.71c-0.901,3.838-4.744,6.218-8.581,5.317c-3.837-0.901-6.217-4.743-5.316-8.581
				c0.902-3.837,4.743-6.218,8.581-5.316C361.74,186.031,364.12,189.872,363.219,193.71z"/>
			<path style="fill:#6CAD7E;" d="M355.227,216.068c-0.564,2.404-2.971,3.895-5.374,3.33c-2.403-0.565-3.894-2.97-3.329-5.374
				c0.564-2.403,2.97-3.893,5.374-3.328C354.301,211.26,355.792,213.664,355.227,216.068z"/>
			<path style="fill:#6CAD7E;" d="M383.315,198.43c-0.564,2.403-2.971,3.894-5.374,3.33c-2.403-0.564-3.893-2.97-3.329-5.374
				c0.564-2.403,2.971-3.894,5.373-3.329C382.389,193.621,383.88,196.026,383.315,198.43z"/>
		</g>
		<g>
			<path style="fill:#F1E4C4;" d="M257.468,265.472v-17.791c0-2.36-1.913-4.274-4.273-4.274h-2.44h-2.439
				c-2.361,0-4.274,1.914-4.274,4.274v17.791c-7.257,2.658-12.436,9.625-12.436,17.803c0,4.616,1.65,8.847,4.393,12.133
				c0.714,0.857,2.469,2.372,4.887,2.372c3.987,0.003,7.061,0.016,9.869,0.026c2.808-0.011,5.882-0.023,9.869-0.026
				c2.417,0,4.172-1.515,4.888-2.372c2.742-3.286,4.393-7.517,4.393-12.133C269.904,275.098,264.724,268.13,257.468,265.472z"/>
			<path style="fill:#F05C42;" d="M255.721,282.36c-6.591,0.488-13.865-3.808-20.12-0.335c-0.037,0.435-0.061,0.873-0.061,1.318
				c0,3.657,1.308,7.01,3.481,9.614c0.566,0.68,1.956,1.879,3.872,1.879c7.565,0.007,10.99,0.05,17.273,0.05
				c3.308-2.754,5.41-6.904,5.41-11.543c0-0.996-0.099-1.966-0.283-2.907C262.202,281.747,258.961,282.144,255.721,282.36z"/>
			<path style="fill:#DED2B5;" d="M244.914,290.872c0,0.819-0.663,1.481-1.48,1.481c-0.818,0-1.48-0.662-1.48-1.481
				c0-0.818,0.662-1.48,1.48-1.48C244.25,289.392,244.914,290.054,244.914,290.872z"/>
			<path style="fill:#DED2B5;" d="M259.083,290.986c0,0.818-0.663,1.482-1.48,1.482c-0.818,0-1.482-0.663-1.482-1.482
				c0-0.817,0.664-1.481,1.482-1.481C258.42,289.505,259.083,290.169,259.083,290.986z"/>
			<path style="fill:#DED2B5;" d="M263.202,285.67c0,0.818-0.663,1.482-1.482,1.482c-0.818,0-1.48-0.663-1.48-1.482
				c0-0.817,0.662-1.481,1.48-1.481C262.539,284.189,263.202,284.853,263.202,285.67z"/>
			<path style="fill:#DED2B5;" d="M253.716,288.874c0,0.817-0.662,1.48-1.481,1.48c-0.816,0-1.48-0.663-1.48-1.48
				c0-0.818,0.664-1.481,1.48-1.481C253.054,287.393,253.716,288.056,253.716,288.874z"/>
			<path style="fill:#DED2B5;" d="M241.468,285.67c0,0.684-0.553,1.236-1.236,1.236c-0.683,0-1.236-0.553-1.236-1.236
				c0-0.682,0.554-1.235,1.236-1.235C240.915,284.435,241.468,284.988,241.468,285.67z"/>
			<path style="fill:#DED2B5;" d="M248.623,284.435c0,0.682-0.553,1.235-1.236,1.235c-0.683,0-1.236-0.554-1.236-1.235
				c0-0.684,0.554-1.237,1.236-1.237C248.071,283.197,248.623,283.751,248.623,284.435z"/>
		</g>
		<g>
			<g>
				<path style="fill:#FAAE3E;" d="M455.148,340.105c-7.095,0-16.672,1.693-17.795,1.897c-1.125-0.204-10.702-1.897-17.796-1.897
					c-7.547,0-17.906,1.917-17.906,1.917v46.764c0,0,10.931-1.916,17.906-1.916c6.4,0,16.118,1.612,17.685,1.878h0.22
					c1.566-0.267,11.285-1.878,17.686-1.878c6.975,0,17.904,1.916,17.904,1.916v-46.764
					C473.053,342.022,462.693,340.105,455.148,340.105z"/>
				<path style="fill:#F1E4C4;" d="M437.456,385.463c0,0-10.128-1.776-16.591-1.776c-6.464,0-16.589,1.776-16.589,1.776v-43.326
					c0,0,9.598-1.776,16.589-1.776c6.993,0,16.591,1.776,16.591,1.776V385.463z"/>
				<path style="fill:#F1E4C4;" d="M470.43,385.463c0,0-10.127-1.776-16.59-1.776c-6.464,0-16.591,1.776-16.591,1.776v-43.326
					c0,0,9.599-1.776,16.591-1.776c6.993,0,16.59,1.776,16.59,1.776V385.463z"/>
				<polygon style="fill:#D0C6AB;" points="436.961,342.014 437.744,342.014 437.744,385.383 437.353,385.463 436.961,385.383 				
					"/>
				<g>
					<path style="fill:#0F3041;" d="M432.885,349.299c-0.12-0.02-12.174-1.881-22.62-0.002l-0.179-0.751
						c10.616-1.91,22.837-0.021,22.96-0.002L432.885,349.299z"/>
					<path style="fill:#0F3041;" d="M432.885,352.695c-0.12-0.02-12.174-1.881-22.62-0.002l-0.179-0.75
						c10.616-1.91,22.837-0.021,22.96-0.003L432.885,352.695z"/>
					<path style="fill:#0F3041;" d="M432.885,356.092c-0.12-0.019-12.174-1.88-22.62-0.002l-0.179-0.75
						c10.616-1.91,22.837-0.021,22.96-0.002L432.885,356.092z"/>
					<path style="fill:#0F3041;" d="M432.885,359.489c-0.12-0.019-12.174-1.88-22.62-0.002l-0.179-0.75
						c10.616-1.909,22.837-0.021,22.96-0.002L432.885,359.489z"/>
					<path style="fill:#0F3041;" d="M432.885,362.886c-0.12-0.019-12.174-1.881-22.62-0.002l-0.179-0.75
						c10.616-1.91,22.837-0.021,22.96-0.002L432.885,362.886z"/>
					<path style="fill:#0F3041;" d="M432.885,366.282c-0.12-0.018-12.174-1.88-22.62-0.001l-0.179-0.751
						c10.616-1.91,22.837-0.021,22.96-0.001L432.885,366.282z"/>
					<path style="fill:#0F3041;" d="M432.67,369.742c-0.119-0.02-12.174-1.881-22.618-0.001l-0.182-0.75
						c10.618-1.91,22.838-0.021,22.96-0.002L432.67,369.742z"/>
					<path style="fill:#F05C42;" d="M432.576,378.485c-0.117-0.009-12.272-0.975-22.404-0.004l0.008-6.858
						c10.978-1.052,22.221-0.047,22.73-0.003L432.576,378.485z"/>
				</g>
				<g>
					<path style="fill:#0F3041;" d="M442.458,349.36l-0.182-0.751c3.543-0.638,7.615-0.922,12.102-0.849l-0.017,0.767
						C449.941,348.453,445.935,348.734,442.458,349.36z"/>
					<path style="fill:#0F3041;" d="M442.458,352.757l-0.182-0.751c3.543-0.638,7.614-0.924,12.102-0.849l-0.016,0.767
						C449.942,351.85,445.935,352.13,442.458,352.757z"/>
					<path style="fill:#0F3041;" d="M442.458,356.153l-0.182-0.75c3.542-0.637,7.612-0.922,12.102-0.848l-0.017,0.767
						C449.939,355.246,445.934,355.528,442.458,356.153z"/>
					<path style="fill:#0F3041;" d="M442.458,359.549l-0.182-0.75c3.541-0.637,7.613-0.92,12.102-0.849l-0.017,0.767
						C449.939,358.644,445.934,358.924,442.458,359.549z"/>
					<path style="fill:#0F3041;" d="M442.458,362.947l-0.182-0.751c3.543-0.638,7.614-0.924,12.102-0.848l-0.016,0.766
						C449.941,362.039,445.935,362.321,442.458,362.947z"/>
					<path style="fill:#0F3041;" d="M465.076,366.345c-0.12-0.019-12.174-1.88-22.618-0.002l-0.182-0.75
						c10.618-1.909,22.839-0.021,22.96-0.003L465.076,366.345z"/>
					<path style="fill:#0F3041;" d="M465.076,369.742c-0.12-0.02-12.174-1.881-22.618-0.001l-0.182-0.75
						c10.618-1.91,22.839-0.021,22.96-0.002L465.076,369.742z"/>
					<path style="fill:#0F3041;" d="M465.076,373.139c-0.12-0.019-12.174-1.88-22.618-0.002l-0.182-0.75
						c10.618-1.909,22.839-0.021,22.96-0.001L465.076,373.139z"/>
					<path style="fill:#0F3041;" d="M465.076,376.536c-0.12-0.019-12.174-1.88-22.618-0.001l-0.182-0.751
						c10.618-1.909,22.839-0.021,22.96-0.002L465.076,376.536z"/>
				</g>
			</g>
			<path style="fill:#F05C42;" d="M465.157,362.967c0,0-3.165-0.652-8.566-0.818c0-0.778,0-14.345,0-14.345s4.994,0.195,8.566,0.818
				C465.157,349.77,465.157,362.967,465.157,362.967z"/>
		</g>
		<g>
			<path style="fill:#0F3041;" d="M648.291,228.45c0,2.242-1.818,4.061-4.061,4.061H632.59c-2.244,0-4.062-1.819-4.062-4.061v-3.53
				c0-2.243,1.817-4.061,4.062-4.061h11.641c2.242,0,4.061,1.818,4.061,4.061V228.45z"/>
			<path style="fill:#0F3041;" d="M606.997,227.131c0,1.405-1.14,2.543-2.544,2.543h-7.291c-1.404,0-2.542-1.138-2.542-2.543v-2.211
				c0-1.405,1.138-2.543,2.542-2.543h7.291c1.404,0,2.544,1.139,2.544,2.543V227.131z"/>
			<path style="fill:#F05C42;" d="M655.534,265.828c0,2.244-1.818,4.062-4.063,4.062h-61.049c-2.243,0-4.061-1.818-4.061-4.062
				v-35.736c0-2.243,1.817-4.061,4.061-4.061h61.049c2.244,0,4.063,1.817,4.063,4.061V265.828z"/>
			<rect x="586.362" y="243.916" style="fill:#6CAD7E;" width="69.172" height="8.088"/>
			<path style="fill:#0F3041;" d="M643.391,248.464c0,9.056-7.342,16.397-16.398,16.397c-9.056,0-16.396-7.341-16.396-16.397
				c0-9.056,7.341-16.398,16.396-16.398C636.049,232.067,643.391,239.408,643.391,248.464z"/>
			<path style="fill:#FAAE3E;" d="M639.93,248.464c0,7.145-5.792,12.936-12.938,12.936c-7.145,0-12.936-5.791-12.936-12.936
				c0-7.145,5.791-12.937,12.936-12.937C634.138,235.527,639.93,241.319,639.93,248.464z"/>
			<path style="fill:#0F3041;" d="M631.648,248.464c0,2.571-2.084,4.656-4.656,4.656c-2.57,0-4.655-2.085-4.655-4.656
				c0-2.571,2.085-4.655,4.655-4.655C629.565,243.809,631.648,245.893,631.648,248.464z"/>
			<path style="fill:#FAAE3E;" d="M599.107,232.51c0,1.567-1.269,2.837-2.836,2.837s-2.837-1.27-2.837-2.837
				c0-1.566,1.271-2.837,2.837-2.837S599.107,230.944,599.107,232.51z"/>
			<path style="fill:#FAAE3E;" d="M607.479,232.51c0,1.567-1.271,2.837-2.837,2.837s-2.837-1.27-2.837-2.837
				c0-1.566,1.271-2.837,2.837-2.837S607.479,230.944,607.479,232.51z"/>
		</g>
		<path style="fill:#F05C42;" d="M310.802,345.774c2.981-0.633,5.086-2.917,5.128-5.356c0.019-0.108,0.031-0.217,0.031-0.327
			v-15.767l11.999-2.532v10.713c-1.069-0.313-2.276-0.372-3.507-0.112c-3.372,0.718-5.627,3.547-5.039,6.322
			c0.588,2.774,3.801,4.444,7.172,3.728c2.981-0.632,5.085-2.918,5.127-5.356c0.02-0.108,0.031-0.217,0.031-0.328v-17.301
			c0-0.002,0-0.003,0-0.003c0-0.059-0.012-0.121-0.017-0.181c-0.006-0.068-0.009-0.138-0.022-0.204c0-0.001,0-0.002,0-0.003
			c-0.005-0.02-0.014-0.035-0.019-0.054c-0.024-0.104-0.055-0.207-0.096-0.303c-0.02-0.047-0.049-0.089-0.072-0.134
			c-0.034-0.063-0.064-0.128-0.105-0.187c-0.035-0.05-0.076-0.094-0.116-0.14c-0.038-0.047-0.075-0.097-0.119-0.139
			c-0.04-0.04-0.086-0.074-0.132-0.11c-0.05-0.041-0.097-0.085-0.151-0.121c-0.044-0.029-0.092-0.05-0.14-0.076
			c-0.06-0.033-0.118-0.069-0.182-0.095c-0.059-0.024-0.119-0.038-0.178-0.056c-0.058-0.017-0.113-0.039-0.172-0.051
			c-0.095-0.019-0.193-0.025-0.293-0.029c-0.026-0.001-0.051-0.009-0.079-0.009c-0.001,0-0.002,0.002-0.003,0.002
			c-0.066,0-0.132,0.013-0.199,0.02c-0.062,0.006-0.125,0.007-0.185,0.02c-0.001,0.001-0.002,0.001-0.003,0.001l-15.784,3.331
			c-0.874,0.184-1.501,0.957-1.501,1.852v13.047c-1.067-0.313-2.276-0.372-3.507-0.112c-3.371,0.718-5.627,3.547-5.039,6.322
			C304.219,344.821,307.431,346.49,310.802,345.774z"/>
		<path style="fill:#0C8485;" d="M502.981,213.91c2.005-0.425,3.42-1.962,3.449-3.602c0.013-0.073,0.021-0.146,0.021-0.22v-10.605
			l8.07-1.703v7.205c-0.719-0.21-1.53-0.25-2.358-0.075c-2.27,0.483-3.785,2.386-3.39,4.252c0.397,1.867,2.557,2.989,4.824,2.508
			c2.005-0.425,3.42-1.963,3.448-3.602c0.014-0.073,0.021-0.146,0.021-0.221v-11.636c0-0.001,0-0.002,0-0.002
			c0-0.04-0.008-0.081-0.012-0.122c-0.005-0.046-0.006-0.093-0.015-0.137c0-0.001,0-0.001,0-0.002
			c-0.003-0.013-0.01-0.023-0.013-0.036c-0.017-0.07-0.037-0.139-0.064-0.203c-0.014-0.032-0.033-0.06-0.049-0.09
			c-0.023-0.043-0.043-0.087-0.07-0.126c-0.023-0.034-0.052-0.063-0.079-0.094c-0.025-0.032-0.05-0.065-0.079-0.094
			c-0.027-0.027-0.059-0.049-0.088-0.074c-0.035-0.027-0.066-0.057-0.102-0.082c-0.03-0.02-0.063-0.033-0.095-0.051
			c-0.04-0.022-0.078-0.046-0.122-0.064c-0.04-0.016-0.08-0.025-0.12-0.037c-0.037-0.011-0.075-0.026-0.115-0.035
			c-0.064-0.013-0.13-0.017-0.196-0.019c-0.018-0.001-0.034-0.006-0.054-0.006c0,0-0.001,0.001-0.002,0.001
			c-0.045,0-0.089,0.008-0.134,0.013c-0.041,0.004-0.084,0.005-0.124,0.014c-0.001,0-0.002,0-0.002,0l-10.616,2.24
			c-0.588,0.124-1.01,0.643-1.01,1.246v8.775c-0.718-0.211-1.53-0.25-2.36-0.075c-2.267,0.482-3.783,2.386-3.388,4.251
			C498.555,213.27,500.714,214.392,502.981,213.91z"/>
		<path style="fill:#0F3041;" d="M501.2,415.938c6.471-0.93,7.752-4.136,7.551-8.904c-0.066-1.445-0.13-2.895-0.197-4.342v-4.132
			c0.933-1.706,5.505-0.197,6.318-0.086c2.285,0.312,4.193-0.179,6.647-3.269l0.036-0.502l-0.122-0.24l-0.485-0.133
			c-3.48,0.865-5.876-1.604-8.409-3.562c-2.832-2.187-4.657-0.905-5.376-0.155c-0.327,0.157-0.553,0.489-0.553,0.875v1.527
			c-0.013,0.345-0.011,0.691,0,1.037v11.478c-2.406-0.928-4.701-1.148-7.142-0.408c-2.619,0.794-5.171,2.78-5.709,5.369
			C492.659,415.777,497.832,416.424,501.2,415.938z"/>
		<path style="fill:#0F3041;" d="M563.574,241.899c4.42-0.635,5.295-2.826,5.158-6.083c-0.045-0.988-0.089-1.978-0.135-2.966v-2.823
			c0.637-1.166,3.761-0.135,4.316-0.059c1.561,0.213,2.864-0.122,4.54-2.233l0.024-0.343l-0.083-0.164l-0.331-0.091
			c-2.378,0.591-4.015-1.096-5.745-2.433c-1.935-1.494-3.182-0.619-3.673-0.106c-0.223,0.107-0.377,0.334-0.377,0.598v1.043
			c-0.009,0.236-0.008,0.473,0,0.708v7.841c-1.644-0.634-3.212-0.784-4.879-0.279c-1.789,0.543-3.532,1.899-3.9,3.668
			C557.739,241.79,561.273,242.231,563.574,241.899z"/>
		<path style="fill:#0C8485;" d="M394.36,158.087c6.471-0.931,7.752-4.137,7.551-8.905c-0.066-1.445-0.131-2.894-0.197-4.342v-4.132
			c0.932-1.706,5.504-0.197,6.318-0.086c2.285,0.312,4.193-0.178,6.646-3.269l0.035-0.502l-0.121-0.24l-0.486-0.133
			c-3.48,0.865-5.875-1.604-8.408-3.562c-2.832-2.187-4.658-0.905-5.377-0.155c-0.326,0.157-0.553,0.489-0.553,0.875v1.527
			c-0.012,0.345-0.01,0.691,0,1.037v11.478c-2.406-0.927-4.701-1.148-7.141-0.408c-2.619,0.794-5.172,2.78-5.709,5.369
			C385.819,157.926,390.991,158.572,394.36,158.087z"/>
		<g>
			<path style="fill:#6CAD7E;" d="M351.976,399.378c-5.885,0-10.494-13.653-10.494-31.083c0-17.43,4.609-31.083,10.494-31.083
				c5.885,0,10.493,13.653,10.493,31.083C362.469,385.725,357.861,399.378,351.976,399.378z M351.976,338.395
				c-4.497,0-9.312,12.015-9.312,29.9c0,17.886,4.814,29.901,9.312,29.901c4.496,0,9.31-12.016,9.31-29.901
				C361.287,350.409,356.472,338.395,351.976,338.395z"/>
			<path style="fill:#6CAD7E;" d="M351.976,378.789c-17.43,0-31.084-4.609-31.084-10.494c0-5.884,13.653-10.494,31.084-10.494
				c17.429,0,31.083,4.61,31.083,10.494C383.06,374.18,369.405,378.789,351.976,378.789z M351.976,358.984
				c-17.886,0-29.901,4.815-29.901,9.312c0,4.497,12.015,9.311,29.901,9.311c17.885,0,29.902-4.814,29.902-9.311
				C381.878,363.799,369.861,358.984,351.976,358.984z"/>
			<path style="fill:#FAAE3E;" d="M369.097,388.274c-4.318,0-13.455-6.121-22.218-14.883c-5.058-5.057-9.325-10.307-12.019-14.784
				c-1.997-3.32-3.984-7.668-2.114-9.54c0.499-0.498,1.208-0.751,2.106-0.751c4.32,0,13.456,6.12,22.219,14.883
				c9.321,9.321,17.441,21.014,14.132,24.324C370.706,388.021,369.998,388.274,369.097,388.274z M334.853,349.499
				c-0.574,0-1.001,0.135-1.27,0.404c-1.009,1.009-0.152,4.035,2.29,8.094c2.645,4.396,6.851,9.566,11.84,14.558
				c8.424,8.422,17.416,14.537,21.383,14.537c0.575,0,1.002-0.137,1.27-0.405c2.015-2.015-3.294-11.814-14.132-22.652
				C347.812,355.612,338.82,349.499,334.853,349.499z"/>
			<path style="fill:#FAAE3E;" d="M334.853,388.274c-0.899,0-1.608-0.253-2.106-0.75c-3.309-3.31,4.811-15.003,14.132-24.324
				c8.763-8.763,17.899-14.883,22.218-14.883c0.898,0,1.608,0.253,2.106,0.751c1.872,1.872-0.116,6.22-2.114,9.54
				c-2.692,4.476-6.96,9.727-12.019,14.784C348.308,382.153,339.173,388.274,334.853,388.274z M369.097,349.499
				c-3.967,0-12.959,6.113-21.383,14.536c-10.837,10.839-16.146,20.637-14.131,22.652c0.268,0.268,0.696,0.405,1.27,0.405
				c3.966,0,12.959-6.115,21.381-14.537c4.992-4.992,9.198-10.162,11.844-14.558c2.442-4.06,3.299-7.085,2.289-8.094
				C370.099,349.634,369.671,349.499,369.097,349.499z"/>
			<path style="fill:#0C8485;" d="M373.259,349.604c0,1.542-1.251,2.793-2.793,2.793c-1.543,0-2.794-1.251-2.794-2.793
				c0-1.543,1.251-2.794,2.794-2.794C372.008,346.81,373.259,348.061,373.259,349.604z"/>
			<path style="fill:#0C8485;" d="M373.259,386.758c0,1.543-1.251,2.793-2.793,2.793c-1.543,0-2.794-1.25-2.794-2.793
				c0-1.542,1.251-2.793,2.794-2.793C372.008,383.965,373.259,385.216,373.259,386.758z"/>
			<path style="fill:#0F3041;" d="M354.769,398.787c0,1.543-1.251,2.793-2.793,2.793c-1.543,0-2.793-1.25-2.793-2.793
				c0-1.543,1.25-2.793,2.793-2.793C353.518,395.995,354.769,397.245,354.769,398.787z"/>
			<path style="fill:#0F3041;" d="M348.578,344.018c0,1.542-1.25,2.792-2.792,2.792c-1.544,0-2.794-1.25-2.794-2.792
				c0-1.543,1.25-2.793,2.794-2.793C347.328,341.225,348.578,342.475,348.578,344.018z"/>
			<path style="fill:#F05C42;" d="M355.951,368.295c0,1.706-1.383,3.088-3.089,3.088c-1.705,0-3.087-1.382-3.087-3.088
				c0-1.706,1.382-3.088,3.087-3.088C354.568,365.207,355.951,366.589,355.951,368.295z"/>
			<path style="fill:#0F3041;" d="M324.276,368.295c0,1.543-1.251,2.793-2.793,2.793s-2.794-1.25-2.794-2.793
				c0-1.543,1.252-2.793,2.794-2.793S324.276,366.753,324.276,368.295z"/>
		</g>
		<g>
			<path style="fill:#0F3041;" d="M483.305,282.85c0,4.13-3.35,7.477-7.478,7.477h-85.247c-4.131,0-7.479-3.348-7.479-7.477v-52.29
				c0-4.13,3.348-7.477,7.479-7.477h85.247c4.129,0,7.478,3.347,7.478,7.477V282.85z"/>
			<rect x="389.039" y="229.972" style="fill:#6CAD7E;" width="88.326" height="53.466"/>
			<g>
				<path style="fill:#FFFFFF;" d="M403.853,262.618v-0.355c0-0.164,0.004-0.331,0.014-0.493c0.01-0.164,0.015-0.301,0.015-0.41
					v-0.219c0-0.109,0.008-0.273,0.027-0.493c0.018-0.22,0.041-0.451,0.067-0.698c0.028-0.246,0.057-0.466,0.084-0.657
					c0.026-0.192,0.048-0.315,0.068-0.37c0.033-0.09,0.107-0.26,0.218-0.506c0.108-0.246,0.2-0.405,0.274-0.478v-5.173
					c-0.091-0.018-0.257-0.055-0.492-0.109c-0.239-0.055-0.402-0.102-0.493-0.138c-0.038-0.017-0.12-0.054-0.247-0.108
					c-0.128-0.055-0.211-0.101-0.246-0.138c-0.037-0.036-0.089-0.082-0.15-0.136c-0.064-0.055-0.096-0.091-0.096-0.11
					c0-0.018-0.006-0.126-0.014-0.329c-0.01-0.2-0.015-0.347-0.015-0.438s0.005-0.227,0.015-0.41
					c0.008-0.182,0.014-0.283,0.014-0.302c0-0.017,0.018-0.071,0.056-0.163c0.036-0.091,0.08-0.192,0.136-0.302
					c0.055-0.109,0.109-0.214,0.163-0.315c0.056-0.1,0.101-0.169,0.138-0.205c0.056-0.073,0.16-0.205,0.313-0.397
					c0.155-0.191,0.326-0.387,0.507-0.588c0.184-0.199,0.36-0.396,0.536-0.588c0.172-0.191,0.295-0.323,0.368-0.396
					c0.056-0.055,0.14-0.133,0.26-0.232c0.117-0.101,0.247-0.206,0.384-0.316c0.136-0.109,0.259-0.205,0.369-0.286
					c0.109-0.083,0.182-0.133,0.22-0.151c0.182-0.018,0.291-0.026,0.326-0.026c0.037,0,0.111,0.004,0.22,0.012
					c0.109,0.01,0.173,0.015,0.192,0.015c0.055,0,0.173,0.023,0.355,0.069c0.182,0.046,0.328,0.087,0.438,0.124
					c0.2,0.018,0.347,0.118,0.438,0.3c0.037,0.091,0.082,0.256,0.138,0.493c0.054,0.237,0.09,0.4,0.109,0.492
					c0,0.019,0.004,0.106,0.015,0.261c0.007,0.155,0.013,0.279,0.013,0.37c0,0.091-0.006,0.209-0.013,0.355
					c-0.011,0.148-0.015,0.229-0.015,0.246c0,0.038-0.042,0.161-0.124,0.37c-0.081,0.21-0.123,0.333-0.123,0.37
					c-0.019,0.073-0.041,0.183-0.069,0.329c-0.026,0.146-0.054,0.296-0.081,0.451c-0.027,0.156-0.051,0.301-0.068,0.438
					c-0.019,0.136-0.028,0.224-0.028,0.26v0.273v0.465v0.466v0.274c0,0.073-0.022,0.254-0.066,0.548
					c-0.046,0.291-0.097,0.605-0.151,0.943c-0.056,0.338-0.109,0.648-0.165,0.931c-0.055,0.284-0.092,0.461-0.109,0.534
					c0,0.036-0.01,0.142-0.027,0.315c-0.02,0.173-0.041,0.356-0.067,0.547c-0.028,0.191-0.055,0.375-0.083,0.548
					c-0.026,0.173-0.05,0.278-0.068,0.314c0,0.037-0.041,0.119-0.123,0.246c-0.083,0.128-0.123,0.21-0.123,0.247v0.328
					c0,0.931,0.04,1.853,0.123,2.766c0.082,0.912,0.123,1.833,0.123,2.764v0.301c0,0.018-0.022,0.051-0.068,0.096
					c-0.047,0.046-0.096,0.095-0.15,0.15c-0.055,0.055-0.11,0.106-0.164,0.15c-0.056,0.047-0.092,0.079-0.109,0.096
					c-0.02,0.075-0.027,0.12-0.027,0.138l0.027,0.109l0.984,1.972v0.137v0.11c-0.035,0.146-0.091,0.282-0.164,0.41
					c-0.073,0.129-0.183,0.237-0.328,0.329h-0.219h-0.657h-0.247h-0.273h-0.685h-0.136c-0.037,0-0.12-0.032-0.247-0.096
					c-0.127-0.063-0.21-0.114-0.245-0.15c-0.037-0.019-0.079-0.087-0.123-0.206c-0.046-0.118-0.088-0.214-0.123-0.287
					c-0.038-0.091-0.084-0.256-0.14-0.494c-0.054-0.236-0.09-0.4-0.107-0.492c-0.02-0.091-0.042-0.247-0.068-0.465
					c-0.027-0.218-0.056-0.447-0.084-0.683c-0.026-0.238-0.05-0.458-0.067-0.658c-0.02-0.201-0.027-0.337-0.027-0.41v-0.193
					c0-0.145-0.005-0.296-0.015-0.451c-0.01-0.155-0.014-0.305-0.014-0.452V262.618z"/>
				<path style="fill:#FFFFFF;" d="M413.242,263.356v-0.137c0.018-0.018,0.055-0.05,0.109-0.096c0.055-0.045,0.109-0.095,0.164-0.15
					c0.056-0.055,0.105-0.105,0.15-0.149c0.046-0.046,0.068-0.078,0.068-0.096c0-0.018,0.005-0.087,0.016-0.206
					c0.007-0.119,0.012-0.215,0.012-0.288c0-0.056-0.005-0.146-0.012-0.273c-0.011-0.127-0.016-0.2-0.016-0.219
					c0-0.02-0.022-0.064-0.068-0.137c-0.045-0.073-0.095-0.151-0.15-0.232c-0.055-0.083-0.109-0.16-0.164-0.233
					c-0.055-0.073-0.092-0.119-0.109-0.137c-0.019-0.018-0.051-0.078-0.097-0.178c-0.044-0.101-0.095-0.205-0.149-0.314
					c-0.055-0.11-0.104-0.214-0.151-0.315c-0.046-0.1-0.077-0.16-0.097-0.178c-0.017-0.018-0.109-0.028-0.272-0.028h-0.466
					c-0.163,0-0.319,0.006-0.465,0.014c-0.145,0.01-0.236,0.014-0.272,0.014c-0.055,0-0.17-0.008-0.343-0.028
					c-0.174-0.017-0.353-0.04-0.535-0.067c-0.181-0.028-0.355-0.055-0.52-0.083c-0.163-0.027-0.273-0.05-0.328-0.068
					c-0.037-0.036-0.083-0.118-0.137-0.248c-0.056-0.126-0.093-0.209-0.109-0.246c-0.037-0.091-0.086-0.26-0.15-0.506
					c-0.064-0.247-0.096-0.406-0.096-0.48c0-0.018-0.005-0.071-0.014-0.162c-0.009-0.092-0.014-0.155-0.014-0.193
					c0-0.054,0.005-0.127,0.014-0.218c0.009-0.092,0.014-0.146,0.014-0.164c0-0.037,0.032-0.146,0.096-0.329
					c0.064-0.182,0.113-0.319,0.15-0.411c0.036-0.055,0.082-0.146,0.137-0.273c0.055-0.128,0.092-0.201,0.109-0.22
					c0.037-0.038,0.114-0.082,0.233-0.137c0.118-0.055,0.205-0.09,0.259-0.11l1.478-0.246c0.109-0.018,0.27-0.049,0.48-0.095
					c0.208-0.046,0.382-0.083,0.519-0.109c0.137-0.028,0.215-0.042,0.231-0.042c0-0.017,0.07-0.154,0.207-0.41
					c0.136-0.256,0.231-0.446,0.287-0.575c0.036-0.055,0.081-0.173,0.137-0.355c0.056-0.184,0.093-0.31,0.11-0.383v-0.109v-0.138
					c0-0.017-0.015-0.076-0.042-0.177c-0.027-0.101-0.055-0.207-0.083-0.316c-0.026-0.109-0.055-0.209-0.081-0.302
					c-0.028-0.089-0.041-0.154-0.041-0.191c0-0.055,0.018-0.16,0.055-0.314c0.035-0.155,0.082-0.324,0.138-0.506
					c0.055-0.182,0.108-0.361,0.164-0.534c0.056-0.174,0.099-0.296,0.136-0.37c0.037-0.055,0.114-0.146,0.232-0.273
					c0.119-0.127,0.206-0.202,0.261-0.219c0.02,0,0.097-0.004,0.233-0.013c0.138-0.009,0.252-0.014,0.343-0.014
					c0.092,0,0.219,0.004,0.384,0.014c0.163,0.009,0.254,0.013,0.271,0.013c0.057,0.018,0.144,0.055,0.263,0.109
					c0.118,0.055,0.195,0.102,0.232,0.138c0.054,0.054,0.124,0.155,0.205,0.301c0.082,0.146,0.165,0.3,0.247,0.465
					c0.081,0.165,0.15,0.315,0.204,0.452c0.055,0.136,0.082,0.223,0.082,0.26c0.019,0.109,0.019,0.311,0,0.602
					c-0.019,0.292-0.045,0.603-0.082,0.931c-0.036,0.329-0.071,0.638-0.108,0.931c-0.037,0.292-0.056,0.502-0.056,0.629h2.957
					c0.054,0,0.141,0.079,0.259,0.233c0.118,0.155,0.196,0.278,0.233,0.369c0,0.02,0.005,0.092,0.013,0.219
					c0.01,0.128,0.016,0.237,0.016,0.329c0,0.09-0.006,0.219-0.016,0.382c-0.008,0.165-0.013,0.264-0.013,0.301
					c0,0.054-0.01,0.143-0.026,0.261c-0.02,0.119-0.042,0.246-0.07,0.383c-0.026,0.136-0.054,0.265-0.08,0.383
					c-0.028,0.118-0.052,0.187-0.069,0.204c0,0.02-0.032,0.056-0.097,0.111c-0.064,0.054-0.112,0.1-0.149,0.136
					c-0.056,0.038-0.142,0.087-0.26,0.151c-0.12,0.064-0.198,0.096-0.232,0.096h-0.192h-0.302h-0.327h-0.165
					c-0.091,0-0.256,0.01-0.492,0.028c-0.239,0.018-0.489,0.04-0.754,0.067c-0.264,0.027-0.511,0.056-0.739,0.083
					c-0.228,0.027-0.388,0.05-0.48,0.067l0.74,0.74c0.02,0.018,0.057,0.122,0.11,0.314c0.054,0.191,0.101,0.333,0.137,0.425
					c0.036,0.146,0.086,0.337,0.15,0.574c0.064,0.237,0.096,0.375,0.096,0.412v0.164c0,0.109,0.004,0.228,0.014,0.357
					c0.01,0.127,0.015,0.263,0.015,0.409v0.329v0.329c0,0.145-0.005,0.279-0.015,0.396c-0.01,0.119-0.014,0.224-0.014,0.315v0.166
					c0,0.054-0.032,0.141-0.096,0.26c-0.064,0.119-0.114,0.196-0.15,0.232h-0.987h-0.984c-0.054,0-0.178-0.032-0.368-0.095
					c-0.191-0.064-0.314-0.114-0.37-0.151c-0.02-0.018-0.059-0.054-0.122-0.109c-0.065-0.055-0.105-0.1-0.123-0.136
					c-0.038-0.037-0.083-0.12-0.138-0.248c-0.055-0.127-0.092-0.208-0.109-0.246V263.356z"/>
				<path style="fill:#FFFFFF;" d="M420.387,264.834c0-0.017,0.008-0.091,0.026-0.218c0.017-0.127,0.042-0.269,0.068-0.424
					c0.028-0.156,0.055-0.31,0.082-0.466c0.026-0.154,0.051-0.278,0.068-0.369c0.147-0.583,0.383-1.112,0.712-1.587
					c0.328-0.474,0.666-0.929,1.013-1.368c0.073-0.09,0.173-0.214,0.302-0.37c0.127-0.155,0.255-0.311,0.384-0.466
					c0.127-0.154,0.24-0.291,0.341-0.411c0.102-0.118,0.168-0.196,0.205-0.233l3.941-3.94c0.019-0.019,0.083-0.073,0.192-0.165
					c0.109-0.09,0.229-0.187,0.356-0.288c0.126-0.1,0.254-0.201,0.382-0.301c0.128-0.101,0.228-0.177,0.301-0.232l0.739-0.494
					l2.71-2.711c0.036-0.036,0.082-0.118,0.136-0.246c0.056-0.127,0.093-0.209,0.111-0.246v-0.108v-0.137
					c-0.036-0.055-0.116-0.14-0.233-0.26c-0.119-0.118-0.205-0.197-0.26-0.233h-0.22c-0.09,0-0.2-0.005-0.327-0.013
					c-0.129-0.01-0.238-0.014-0.328-0.014h-0.246h-0.275c-0.109,0-0.222,0.004-0.342,0.014c-0.119,0.008-0.232,0.013-0.343,0.013
					h-0.137c-0.036,0-0.141,0.014-0.314,0.042c-0.174,0.027-0.356,0.055-0.549,0.081c-0.191,0.028-0.373,0.055-0.547,0.083
					c-0.172,0.028-0.278,0.041-0.315,0.041h-0.274h-0.218l-1.478-0.493c-0.055-0.017-0.102-0.027-0.138-0.027
					c-0.018,0-0.055,0.01-0.109,0.027c-0.037,0.038-0.118,0.156-0.246,0.356c-0.128,0.201-0.209,0.328-0.246,0.383
					c0,0.037-0.032,0.16-0.096,0.369c-0.064,0.211-0.114,0.333-0.151,0.369c-0.018,0.038-0.063,0.101-0.136,0.193
					c-0.073,0.091-0.15,0.192-0.232,0.3c-0.082,0.11-0.16,0.211-0.233,0.302c-0.073,0.091-0.119,0.155-0.137,0.191
					c-0.018,0.037-0.041,0.114-0.068,0.232c-0.028,0.119-0.055,0.247-0.081,0.383c-0.027,0.137-0.052,0.269-0.069,0.396
					c-0.019,0.128-0.026,0.202-0.026,0.22c-0.02,0.054-0.056,0.142-0.11,0.259c-0.056,0.119-0.1,0.196-0.137,0.233
					c-0.019,0.038-0.092,0.078-0.219,0.123c-0.129,0.046-0.22,0.087-0.274,0.124h-0.138h-0.108c-0.037-0.019-0.101-0.055-0.191-0.11
					c-0.093-0.054-0.192-0.109-0.302-0.165c-0.108-0.054-0.215-0.104-0.314-0.15c-0.101-0.045-0.161-0.069-0.178-0.069
					c-0.019-0.018-0.101-0.027-0.246-0.027c-0.146,0-0.229,0.009-0.246,0.027c-0.037-0.054-0.092-0.15-0.165-0.287
					c-0.072-0.136-0.15-0.282-0.232-0.438c-0.082-0.154-0.155-0.305-0.22-0.451c-0.063-0.146-0.105-0.246-0.122-0.301
					c0-0.018-0.006-0.073-0.014-0.164c-0.01-0.091-0.014-0.154-0.014-0.191c0-0.054,0.004-0.128,0.014-0.22
					c0.008-0.091,0.014-0.146,0.014-0.164c0-0.017,0.023-0.063,0.067-0.136c0.045-0.073,0.097-0.149,0.15-0.233
					c0.056-0.082,0.11-0.159,0.164-0.232c0.056-0.073,0.092-0.119,0.109-0.138c0.019-0.055,0.093-0.205,0.22-0.451
					c0.128-0.246,0.26-0.506,0.397-0.781c0.136-0.274,0.264-0.534,0.384-0.779c0.118-0.247,0.195-0.397,0.231-0.452l0.985-0.986
					l0.494-0.247c0.072-0.018,0.182-0.049,0.326-0.096c0.146-0.045,0.298-0.096,0.453-0.15c0.155-0.054,0.3-0.105,0.438-0.15
					c0.136-0.045,0.222-0.078,0.259-0.096c0.037-0.018,0.113-0.041,0.233-0.069c0.117-0.027,0.247-0.054,0.383-0.081
					c0.137-0.027,0.265-0.05,0.383-0.069c0.118-0.018,0.196-0.027,0.232-0.027h0.492l0.985-0.246
					c0.056-0.017,0.17-0.037,0.344-0.055c0.173-0.018,0.364-0.041,0.575-0.069c0.208-0.027,0.414-0.049,0.615-0.069
					c0.2-0.018,0.346-0.036,0.438-0.054h0.3h0.192c0.036,0,0.118,0.078,0.247,0.232c0.126,0.155,0.208,0.242,0.245,0.26
					c0.036,0.018,0.073,0.027,0.11,0.027c0.017,0,0.063-0.009,0.137-0.027l1.231-0.492h0.109h0.138
					c0.072,0.018,0.186,0.042,0.342,0.067c0.155,0.028,0.314,0.055,0.478,0.083c0.164,0.027,0.305,0.05,0.424,0.068
					c0.119,0.018,0.196,0.027,0.233,0.027c0.038,0.018,0.118,0.054,0.246,0.109c0.129,0.055,0.211,0.101,0.248,0.137
					c0.036,0.037,0.117,0.113,0.245,0.232c0.128,0.12,0.21,0.206,0.247,0.26l0.493,0.739l0.491,0.493l0.248,0.492
					c0.035,0.092,0.085,0.234,0.148,0.423c0.065,0.192,0.096,0.298,0.096,0.316c0,0.019,0.005,0.137,0.015,0.356
					c0.01,0.219,0.014,0.392,0.014,0.519c0,0.11-0.004,0.27-0.014,0.48c-0.01,0.209-0.015,0.333-0.015,0.368
					c0,0.075-0.031,0.23-0.096,0.466c-0.063,0.238-0.113,0.411-0.148,0.52c-0.018,0.037-0.055,0.119-0.109,0.246
					c-0.055,0.127-0.102,0.21-0.139,0.246l-0.984,1.231l-0.74,0.987c-0.018,0.036-0.054,0.078-0.11,0.122
					c-0.054,0.045-0.098,0.087-0.136,0.123l-1.23,0.985l-2.217,1.971l-0.495,0.247l-0.49,0.493l-3.45,3.695v0.191
					c0.037,0,0.118,0.013,0.246,0.041c0.128,0.027,0.21,0.032,0.247,0.014l2.217-0.493c0.092-0.018,0.202-0.042,0.329-0.069
					c0.127-0.027,0.256-0.054,0.382-0.083c0.129-0.027,0.242-0.049,0.344-0.067c0.1-0.019,0.158-0.027,0.176-0.027
					c0.073,0,0.293-0.01,0.657-0.028c0.365-0.018,0.772-0.041,1.219-0.069c0.447-0.027,0.89-0.055,1.328-0.082
					c0.438-0.027,0.767-0.049,0.984-0.069h0.548h0.438c0.09,0.02,0.229,0.054,0.411,0.109c0.181,0.055,0.291,0.101,0.327,0.138
					c0.037,0.036,0.084,0.113,0.139,0.232c0.055,0.12,0.091,0.205,0.109,0.26c0,0.019,0.003,0.123,0.013,0.314
					c0.009,0.192,0.014,0.333,0.014,0.425c0,0.092-0.005,0.233-0.014,0.424c-0.01,0.192-0.013,0.298-0.013,0.315
					c-0.018,0.037-0.036,0.091-0.055,0.165c-0.018,0.073-0.047,0.155-0.084,0.247c-0.034,0.201-0.067,0.315-0.095,0.341
					c-0.027,0.028-0.088,0.088-0.179,0.178c-0.128,0.128-0.278,0.274-0.452,0.438c-0.173,0.164-0.296,0.284-0.368,0.355
					c-0.037,0.037-0.119,0.084-0.247,0.138c-0.128,0.055-0.209,0.091-0.245,0.109c-0.147,0-0.407,0.01-0.78,0.028
					c-0.374,0.018-0.772,0.04-1.19,0.067c-0.421,0.027-0.817,0.056-1.192,0.082c-0.374,0.028-0.633,0.051-0.778,0.068
					c-0.057,0-0.169,0.01-0.344,0.029c-0.174,0.018-0.35,0.04-0.533,0.067c-0.183,0.027-0.356,0.056-0.519,0.083
					c-0.165,0.027-0.273,0.049-0.329,0.068l-0.738,0.246c-0.694,0.202-1.392,0.366-2.095,0.493
					c-0.702,0.127-1.398,0.292-2.094,0.493c-0.075,0.018-0.173,0.05-0.301,0.095c-0.128,0.046-0.257,0.096-0.384,0.151
					c-0.127,0.055-0.246,0.104-0.355,0.15c-0.11,0.045-0.173,0.077-0.191,0.096c-0.018,0-0.05,0.027-0.096,0.083
					c-0.046,0.054-0.096,0.109-0.151,0.164c-0.056,0.056-0.105,0.109-0.15,0.164c-0.045,0.055-0.079,0.083-0.096,0.083h-0.219
					h-0.273c-0.093-0.018-0.229-0.055-0.411-0.109c-0.183-0.055-0.292-0.101-0.329-0.137c-0.037-0.036-0.117-0.114-0.245-0.233
					c-0.128-0.119-0.208-0.204-0.246-0.259c-0.037-0.036-0.081-0.119-0.138-0.247c-0.054-0.128-0.091-0.21-0.109-0.247
					c-0.017-0.091-0.042-0.231-0.068-0.424c-0.027-0.19-0.054-0.39-0.082-0.601c-0.026-0.209-0.052-0.406-0.068-0.589
					C420.395,265.009,420.387,264.89,420.387,264.834z"/>
				<path style="fill:#FFFFFF;" d="M437.329,261.085c0-0.09,0.004-0.236,0.013-0.438c0.01-0.199,0.022-0.311,0.042-0.329
					c0.018-0.055,0.122-0.173,0.315-0.356c0.191-0.182,0.332-0.309,0.424-0.383c0.036-0.036,0.145-0.082,0.327-0.137
					c0.184-0.054,0.32-0.091,0.411-0.109l1.724-0.246c0.073-0.019,0.188-0.042,0.343-0.069c0.155-0.027,0.31-0.054,0.466-0.082
					c0.155-0.028,0.296-0.051,0.424-0.069c0.128-0.018,0.21-0.027,0.247-0.027l0.984-0.246c0.036-0.019,0.142-0.056,0.313-0.11
					c0.175-0.055,0.358-0.109,0.549-0.165c0.192-0.054,0.374-0.104,0.548-0.15c0.173-0.044,0.277-0.066,0.314-0.066
					c0.018,0,0.134-0.005,0.341-0.015c0.212-0.01,0.38-0.014,0.508-0.014c0.108,0,0.274,0.003,0.493,0.014
					c0.218,0.01,0.347,0.015,0.383,0.015c0.037,0,0.114,0.031,0.232,0.094c0.119,0.064,0.205,0.115,0.261,0.15
					c0.036,0.036,0.088,0.083,0.151,0.137c0.063,0.054,0.096,0.092,0.096,0.11c0.018,0.181,0.026,0.3,0.026,0.355
					c0,0.037-0.005,0.105-0.013,0.205c-0.009,0.1-0.014,0.16-0.014,0.178c0,0.037-0.042,0.161-0.123,0.371
					c-0.082,0.209-0.124,0.332-0.124,0.368v0.275v0.465v0.465v0.273c0,0.018-0.031,0.055-0.096,0.109
					c-0.063,0.054-0.113,0.102-0.15,0.136c-0.056,0.039-0.142,0.087-0.26,0.152c-0.118,0.063-0.198,0.094-0.233,0.094
					c-0.055,0.019-0.191,0.041-0.41,0.069c-0.219,0.027-0.451,0.055-0.697,0.082c-0.246,0.028-0.48,0.051-0.698,0.069
					c-0.22,0.017-0.356,0.027-0.411,0.027l-1.726,0.247h-0.244h-0.247l-1.971-0.247h-0.137h-0.11
					c-0.018,0.018-0.049,0.055-0.097,0.109c-0.044,0.055-0.095,0.11-0.15,0.165c-0.054,0.054-0.102,0.105-0.148,0.15
					c-0.046,0.046-0.078,0.069-0.098,0.069c-0.017,0-0.076,0.005-0.178,0.013c-0.1,0.01-0.169,0.015-0.204,0.015
					c-0.037,0-0.101-0.005-0.191-0.015c-0.093-0.008-0.147-0.013-0.164-0.013c-0.056-0.037-0.134-0.1-0.232-0.192
					c-0.102-0.091-0.207-0.186-0.316-0.288c-0.109-0.099-0.205-0.2-0.287-0.3c-0.081-0.1-0.132-0.168-0.149-0.206
					c-0.02-0.018-0.032-0.118-0.042-0.3C437.333,261.313,437.329,261.177,437.329,261.085z M444.773,253.393h0.275
					c0.144,0,0.295,0.005,0.451,0.014c0.153,0.009,0.304,0.014,0.45,0.014h0.301c0.056,0.019,0.133,0.069,0.233,0.15
					c0.1,0.083,0.204,0.179,0.314,0.289c0.109,0.108,0.206,0.214,0.289,0.314c0.081,0.101,0.129,0.178,0.149,0.233
					c0.018,0.018,0.031,0.118,0.041,0.301c0.009,0.182,0.014,0.319,0.014,0.411c0,0.091-0.005,0.237-0.014,0.437
					c-0.01,0.201-0.023,0.311-0.041,0.33c-0.037,0.091-0.146,0.229-0.329,0.411c-0.184,0.183-0.317,0.292-0.41,0.329
					c-0.109,0.018-0.292,0.051-0.548,0.095c-0.256,0.046-0.528,0.097-0.821,0.151c-0.292,0.056-0.565,0.105-0.82,0.15
					c-0.257,0.046-0.429,0.078-0.522,0.096l-1.23,0.247l-0.985,0.247c-0.036,0.018-0.128,0.055-0.274,0.11
					c-0.146,0.054-0.305,0.108-0.478,0.164c-0.175,0.054-0.334,0.105-0.479,0.15c-0.147,0.044-0.229,0.069-0.247,0.069
					c-0.02,0-0.141,0.003-0.37,0.013c-0.229,0.009-0.413,0.014-0.561,0.014h-0.273c-0.109,0-0.219-0.005-0.328-0.014
					c-0.11-0.01-0.21-0.013-0.301-0.013h-0.137c-0.037,0-0.115-0.033-0.232-0.097c-0.12-0.064-0.206-0.114-0.261-0.15
					c-0.037-0.037-0.087-0.083-0.15-0.137c-0.064-0.055-0.096-0.092-0.096-0.11v-2.71c0-0.036,0.059-0.108,0.178-0.219
					c0.118-0.109,0.222-0.2,0.314-0.273c0.037-0.037,0.12-0.086,0.248-0.151c0.128-0.064,0.208-0.096,0.246-0.096
					c0.071-0.017,0.282-0.049,0.628-0.095c0.348-0.045,0.713-0.097,1.096-0.151c0.384-0.054,0.743-0.104,1.082-0.15
					c0.337-0.046,0.551-0.077,0.643-0.096c0.036,0,0.128-0.013,0.273-0.041c0.146-0.028,0.302-0.055,0.466-0.082
					c0.163-0.028,0.318-0.054,0.465-0.082c0.147-0.027,0.238-0.041,0.273-0.041h0.192c0.146,0,0.298-0.005,0.45-0.014
					c0.157-0.009,0.308-0.014,0.453-0.014H444.773z"/>
				<path style="fill:#FFFFFF;" d="M447.728,265.711v-0.138c0.037-0.146,0.092-0.282,0.164-0.409
					c0.072-0.129,0.184-0.238,0.331-0.331c0.035-0.017,0.116-0.054,0.245-0.109c0.127-0.054,0.21-0.101,0.247-0.137l0.026-0.109
					c0-0.018-0.01-0.063-0.026-0.136l-0.492-0.493c-0.038-0.055-0.088-0.146-0.152-0.274c-0.064-0.128-0.095-0.2-0.095-0.219
					c0.017-0.054,0.086-0.141,0.205-0.26c0.116-0.12,0.214-0.196,0.287-0.233c0.017,0,0.069-0.005,0.149-0.013
					c0.083-0.009,0.151-0.014,0.207-0.014c0.036,0,0.104,0.005,0.205,0.014c0.099,0.008,0.159,0.013,0.177,0.013
					c0.018,0,0.093,0.022,0.22,0.069c0.127,0.045,0.26,0.096,0.396,0.15c0.136,0.054,0.264,0.11,0.382,0.165
					c0.12,0.055,0.196,0.091,0.235,0.108c0.09,0.037,0.219,0.083,0.383,0.137c0.163,0.055,0.323,0.109,0.478,0.164
					c0.155,0.054,0.292,0.1,0.412,0.136c0.117,0.038,0.185,0.055,0.204,0.055c0.018,0,0.118,0.005,0.302,0.014
					c0.182,0.01,0.318,0.013,0.41,0.013c0.091,0,0.232-0.004,0.423-0.013c0.193-0.009,0.307-0.014,0.344-0.014l1.971-0.493
					c0.309-0.09,0.603-0.187,0.875-0.287c0.274-0.1,0.558-0.251,0.85-0.452c0.073-0.054,0.186-0.128,0.341-0.219
					c0.156-0.091,0.316-0.191,0.48-0.3c0.163-0.11,0.305-0.206,0.424-0.289c0.119-0.082,0.195-0.141,0.232-0.178l1.726-1.725v-0.109
					v-0.136c-0.02-0.055-0.037-0.133-0.057-0.233c-0.017-0.1-0.043-0.215-0.08-0.342c-0.056-0.255-0.092-0.397-0.108-0.425
					c-0.021-0.027-0.065-0.067-0.138-0.123c-0.093-0.109-0.202-0.222-0.328-0.342c-0.128-0.12-0.22-0.206-0.273-0.26
					c-0.11-0.019-0.184-0.027-0.22-0.027c-0.037,0-0.088,0.005-0.15,0.013c-0.064,0.01-0.105,0.014-0.124,0.014
					c-0.035,0.019-0.118,0.055-0.247,0.109c-0.126,0.057-0.209,0.101-0.245,0.137h-5.419c-0.038,0-0.119-0.031-0.246-0.096
					c-0.129-0.063-0.21-0.113-0.248-0.151c-0.037-0.036-0.085-0.118-0.149-0.246c-0.066-0.128-0.097-0.209-0.097-0.247v-2.709
					c0-0.037,0.031-0.11,0.097-0.22c0.064-0.109,0.112-0.2,0.149-0.273c0.038-0.128,0.119-0.21,0.248-0.246l2.462-1.232
					c0.311-0.165,0.702-0.37,1.178-0.616c0.475-0.247,0.936-0.488,1.382-0.726c0.447-0.237,0.989-0.53,1.63-0.877V250.3
					c-0.147-0.036-0.275-0.066-0.385-0.096c-0.109-0.025-0.22-0.054-0.327-0.081c-0.11-0.028-0.202-0.05-0.274-0.068
					c-0.091-0.018-0.237-0.04-0.437-0.068c-0.203-0.028-0.422-0.055-0.658-0.083c-0.238-0.027-0.461-0.049-0.67-0.068
					c-0.212-0.017-0.361-0.027-0.453-0.027h-0.19h-0.302h-0.329h-0.164c-0.038,0-0.118-0.036-0.245-0.11
					c-0.129-0.073-0.21-0.117-0.248-0.136h-0.136h-0.11c-0.018,0.019-0.063,0.054-0.137,0.109c-0.073,0.055-0.15,0.11-0.233,0.164
					c-0.082,0.055-0.159,0.105-0.232,0.151c-0.073,0.046-0.118,0.068-0.137,0.068c-0.037,0.019-0.128,0.051-0.273,0.096
					c-0.146,0.046-0.307,0.095-0.479,0.15c-0.174,0.055-0.333,0.106-0.48,0.15c-0.145,0.047-0.228,0.079-0.246,0.096
					c-0.018,0.02-0.059,0.06-0.122,0.124c-0.064,0.064-0.138,0.132-0.22,0.205c-0.082,0.073-0.165,0.151-0.246,0.234
					c-0.082,0.08-0.134,0.141-0.15,0.176l-0.246,0.494c-0.038,0.127-0.119,0.21-0.246,0.246c-0.056,0.037-0.142,0.087-0.261,0.151
					c-0.119,0.065-0.195,0.095-0.231,0.095c-0.02,0-0.074,0.005-0.166,0.014c-0.093,0.009-0.163,0.014-0.219,0.014
					c-0.036,0-0.1-0.005-0.19-0.014c-0.093-0.009-0.147-0.014-0.166-0.014c-0.036-0.018-0.119-0.055-0.245-0.108
					c-0.128-0.055-0.21-0.102-0.247-0.138l-0.491-0.492c-0.02-0.092-0.042-0.264-0.069-0.52c-0.028-0.256-0.056-0.529-0.082-0.821
					c-0.026-0.292-0.052-0.566-0.068-0.821c-0.018-0.256-0.027-0.439-0.027-0.548c0-0.037-0.006-0.136-0.014-0.3
					c-0.01-0.166-0.015-0.294-0.015-0.384c0-0.092,0.009-0.274,0.028-0.547c0-0.018,0.031-0.055,0.096-0.109
					c0.063-0.056,0.114-0.101,0.151-0.137c0.09-0.055,0.227-0.151,0.408-0.288c0.185-0.137,0.293-0.206,0.33-0.206
					c0.056-0.018,0.15-0.05,0.287-0.095c0.137-0.045,0.287-0.096,0.452-0.151c0.164-0.054,0.319-0.104,0.466-0.151
					c0.145-0.045,0.236-0.077,0.273-0.095c0.054-0.018,0.172-0.041,0.354-0.068c0.184-0.027,0.378-0.055,0.588-0.082
					c0.212-0.027,0.412-0.05,0.603-0.068c0.191-0.017,0.332-0.027,0.425-0.027h0.272c0.146,0,0.311-0.004,0.492-0.014
					c0.184-0.008,0.375-0.013,0.575-0.013h0.438h0.303c0.146,0,0.277,0.005,0.395,0.013c0.12,0.01,0.233,0.014,0.344,0.014h0.136
					l0.492,0.492c0.018,0,0.132,0.011,0.343,0.028c0.209,0.019,0.369,0.027,0.478,0.027c0.056,0,0.146-0.004,0.274-0.013
					c0.127-0.009,0.246-0.014,0.355-0.014c0.147,0,0.265-0.005,0.356-0.014c0.091-0.008,0.146-0.014,0.164-0.014
					c0.036,0,0.119-0.036,0.245-0.108c0.129-0.073,0.212-0.12,0.247-0.138h0.246c0.019,0,0.078-0.013,0.18-0.041
					c0.1-0.027,0.205-0.055,0.315-0.082c0.108-0.027,0.208-0.054,0.3-0.082c0.093-0.027,0.156-0.041,0.193-0.041
					c0.053,0,0.182,0.01,0.382,0.027c0.201,0.018,0.415,0.041,0.643,0.068c0.229,0.027,0.455,0.055,0.684,0.082
					c0.229,0.027,0.398,0.05,0.507,0.068c0.093,0.018,0.226,0.055,0.411,0.108c0.184,0.057,0.291,0.102,0.328,0.138
					c0.036,0.038,0.118,0.115,0.247,0.233c0.127,0.119,0.209,0.205,0.244,0.26c0.037,0.038,0.083,0.12,0.138,0.247
					c0.056,0.127,0.091,0.21,0.11,0.246c0.018,0.054,0.041,0.154,0.068,0.301c0.027,0.146,0.054,0.297,0.081,0.452
					c0.028,0.155,0.051,0.301,0.069,0.438c0.018,0.137,0.027,0.233,0.027,0.287v0.192c0,0.092,0.003,0.205,0.013,0.342
					c0.01,0.136,0.015,0.279,0.015,0.424v0.327v0.33c0,0.128-0.005,0.251-0.015,0.369c-0.01,0.119-0.013,0.232-0.013,0.342v0.138
					c0,0.037-0.032,0.119-0.097,0.246c-0.064,0.127-0.113,0.21-0.149,0.246c-0.036,0.037-0.105,0.105-0.206,0.205
					c-0.1,0.102-0.2,0.206-0.301,0.315c-0.1,0.11-0.196,0.211-0.287,0.301c-0.09,0.092-0.155,0.146-0.191,0.164l-1.972,1.232
					c-0.126,0.036-0.21,0.119-0.245,0.246c0.071,0.036,0.19,0.101,0.354,0.191c0.166,0.093,0.339,0.192,0.521,0.303
					c0.183,0.109,0.355,0.214,0.519,0.314c0.165,0.101,0.275,0.16,0.329,0.178c0.093,0.073,0.233,0.169,0.424,0.287
					c0.192,0.121,0.297,0.188,0.315,0.206c0.018,0.036,0.049,0.108,0.097,0.218c0.043,0.11,0.095,0.229,0.15,0.357
					c0.055,0.126,0.103,0.251,0.149,0.369c0.045,0.119,0.077,0.215,0.095,0.288c0.019,0.054,0.037,0.178,0.056,0.369
					c0.02,0.191,0.041,0.397,0.069,0.616c0.026,0.22,0.05,0.424,0.068,0.616c0.019,0.192,0.035,0.315,0.055,0.37
					c0,0.037,0.027,0.1,0.081,0.191c0.056,0.091,0.11,0.191,0.165,0.301c0.055,0.109,0.109,0.214,0.165,0.314
					c0.054,0.102,0.08,0.161,0.08,0.178c0,0.038-0.041,0.161-0.122,0.37c-0.082,0.21-0.123,0.333-0.123,0.369v0.191v0.303v0.327
					v0.165c-0.02,0.053-0.055,0.141-0.109,0.26c-0.056,0.12-0.101,0.197-0.137,0.232c-0.02,0.02-0.065,0.042-0.139,0.069
					c-0.072,0.027-0.149,0.05-0.23,0.068c-0.084,0.018-0.161,0.037-0.234,0.055c-0.071,0.018-0.118,0.036-0.136,0.054
					c-0.037,0.037-0.079,0.16-0.123,0.369c-0.046,0.211-0.087,0.334-0.123,0.37c-0.055,0.073-0.179,0.201-0.369,0.383
					c-0.192,0.183-0.316,0.301-0.37,0.357l0.246,0.246c-0.036,0.036-0.101,0.106-0.192,0.206c-0.091,0.099-0.188,0.205-0.287,0.313
					c-0.1,0.11-0.2,0.212-0.301,0.303c-0.102,0.091-0.17,0.145-0.206,0.162c-0.054,0.037-0.176,0.109-0.369,0.219
					c-0.191,0.11-0.406,0.228-0.643,0.356c-0.238,0.128-0.471,0.251-0.698,0.369c-0.228,0.119-0.397,0.216-0.507,0.288
					c-0.017,0.018-0.077,0.051-0.178,0.096c-0.1,0.046-0.219,0.096-0.354,0.15c-0.138,0.055-0.274,0.106-0.412,0.152
					c-0.136,0.046-0.23,0.078-0.287,0.096c-0.072,0.037-0.2,0.082-0.383,0.137c-0.183,0.055-0.301,0.091-0.355,0.11
					c-0.092,0.036-0.238,0.081-0.438,0.136c-0.202,0.055-0.412,0.11-0.629,0.164c-0.222,0.054-0.416,0.102-0.59,0.138
					c-0.173,0.035-0.278,0.054-0.316,0.054c-0.092,0.018-0.223,0.041-0.396,0.068c-0.173,0.027-0.348,0.057-0.521,0.083
					c-0.174,0.028-0.337,0.05-0.492,0.068c-0.154,0.018-0.261,0.028-0.315,0.028h-0.22h-0.903h-0.383h-0.383h-0.876h-0.19
					c-0.039,0-0.11-0.009-0.22-0.028c-0.109-0.018-0.233-0.04-0.369-0.068c-0.138-0.026-0.267-0.055-0.385-0.083
					c-0.119-0.027-0.205-0.05-0.26-0.068c-0.036-0.019-0.119-0.054-0.246-0.11c-0.127-0.054-0.209-0.1-0.245-0.136
					c-0.129-0.037-0.211-0.119-0.247-0.246c-0.037-0.036-0.093-0.128-0.165-0.274c-0.071-0.147-0.149-0.301-0.232-0.466
					c-0.083-0.165-0.155-0.315-0.219-0.451c-0.063-0.137-0.104-0.232-0.124-0.287V265.711z"/>
			</g>
		</g>
		<g>
			<path style="fill:#FAAE3E;" d="M278.835,221.835c1.33,0.976,1.068,1.775-0.581,1.775h-73.961c-1.65,0-3-1.35-3-3v-52.705
				c0-1.65,1.088-2.201,2.418-1.225L278.835,221.835z M214.373,207.531c0,1.65,1.35,3,3,3h20.966c1.65,0,1.912-0.799,0.581-1.775
				l-22.129-16.247c-1.33-0.977-2.418-0.425-2.418,1.225V207.531z"/>
			<rect x="210.064" y="217.27" style="fill:#0C8485;" width="0.924" height="6.34"/>
			<rect x="212.295" y="220.327" style="fill:#0C8485;" width="0.924" height="3.284"/>
			<rect x="214.524" y="220.327" style="fill:#0C8485;" width="0.924" height="3.284"/>
			<rect x="216.754" y="220.327" style="fill:#0C8485;" width="0.925" height="3.284"/>
			<rect x="218.985" y="220.327" style="fill:#0C8485;" width="0.925" height="3.284"/>
			<rect x="221.216" y="217.27" style="fill:#0C8485;" width="0.925" height="6.34"/>
			<rect x="223.447" y="220.327" style="fill:#0C8485;" width="0.924" height="3.284"/>
			<rect x="225.677" y="220.327" style="fill:#0C8485;" width="0.924" height="3.284"/>
			<rect x="227.908" y="220.327" style="fill:#0C8485;" width="0.925" height="3.284"/>
			<rect x="230.138" y="220.327" style="fill:#0C8485;" width="0.924" height="3.284"/>
			<rect x="232.369" y="217.27" style="fill:#0C8485;" width="0.924" height="6.34"/>
			<rect x="234.599" y="220.327" style="fill:#0C8485;" width="0.924" height="3.284"/>
			<rect x="236.83" y="220.327" style="fill:#0C8485;" width="0.924" height="3.284"/>
			<rect x="239.061" y="220.327" style="fill:#0C8485;" width="0.924" height="3.284"/>
			<rect x="241.29" y="220.327" style="fill:#0C8485;" width="0.925" height="3.284"/>
			<rect x="243.521" y="217.27" style="fill:#0C8485;" width="0.924" height="6.34"/>
			<rect x="245.752" y="220.327" style="fill:#0C8485;" width="0.924" height="3.284"/>
			<rect x="247.982" y="220.327" style="fill:#0C8485;" width="0.925" height="3.284"/>
			<rect x="250.212" y="220.327" style="fill:#0C8485;" width="0.924" height="3.284"/>
			<rect x="252.443" y="220.327" style="fill:#0C8485;" width="0.924" height="3.284"/>
			<rect x="254.674" y="217.27" style="fill:#0C8485;" width="0.924" height="6.34"/>
			<rect x="256.904" y="220.327" style="fill:#0C8485;" width="0.924" height="3.284"/>
			<rect x="259.135" y="220.327" style="fill:#0C8485;" width="0.924" height="3.284"/>
			<rect x="261.365" y="220.327" style="fill:#0C8485;" width="0.924" height="3.284"/>
			<rect x="263.596" y="220.327" style="fill:#0C8485;" width="0.924" height="3.284"/>
			<rect x="265.827" y="217.27" style="fill:#0C8485;" width="0.924" height="6.34"/>
		</g>
		<g>
			<g>
				<path style="fill:#0C8485;" d="M599.84,318.19c-0.003-0.615-0.507-1.116-1.123-1.114l-3.667,0.014
					c-0.615,0.003-1.33-0.452-1.59-1.009l-1.653-2.829c-0.356-0.502-0.397-1.349-0.092-1.882l1.823-3.186
					c0.305-0.535,0.118-1.222-0.416-1.526l-6.791-3.888c-0.534-0.305-1.222-0.119-1.527,0.415l-1.823,3.187
					c-0.307,0.534-1.058,0.927-1.67,0.873l-3.277,0.008c-0.612,0.058-1.366-0.328-1.677-0.859l-1.846-3.17
					c-0.309-0.532-0.996-0.713-1.528-0.403l-6.765,3.939c-0.531,0.31-0.713,0.998-0.403,1.529l1.846,3.171
					c0.309,0.531,0.309,1.29-0.001,1.685c-0.31,0.396-1.221,1.911-1.451,2.369c-0.229,0.456-1.222,1.69-1.838,1.693l-3.667,0.013
					c-0.615,0.003-1.118,0.508-1.115,1.123l0.028,7.828c0.002,0.615,0.509,1.117,1.124,1.115l3.669-0.014
					c0.615-0.002,1.33,0.453,1.59,1.01l1.652,2.83c0.356,0.501,0.398,1.349,0.093,1.881l-1.823,3.188
					c-0.306,0.534-0.119,1.221,0.415,1.527l6.792,3.887c0.533,0.306,1.22,0.119,1.525-0.416l1.825-3.186
					c0.305-0.534,1.057-0.926,1.669-0.873l3.275-0.009c0.611-0.06,1.366,0.328,1.676,0.86l1.848,3.171
					c0.309,0.531,0.997,0.713,1.529,0.403l6.764-3.94c0.53-0.31,0.713-0.998,0.402-1.529l-1.846-3.167
					c-0.309-0.532-0.308-1.291,0.003-1.689c0.31-0.396,1.22-1.912,1.45-2.369c0.23-0.458,1.224-1.691,1.839-1.693l3.666-0.014
					c0.616-0.001,1.118-0.506,1.114-1.122L599.84,318.19z M579.771,332.214c-5.671,0-10.267-4.597-10.267-10.266
					c0-5.671,4.596-10.268,10.267-10.268c5.67,0,10.267,4.597,10.267,10.268C590.037,327.618,585.44,332.214,579.771,332.214z"/>
				<path style="fill:#036B6D;" d="M579.729,333.344c-6.268,0-11.367-5.099-11.367-11.367c0-6.268,5.099-11.367,11.367-11.367
					c6.269,0,11.366,5.099,11.366,11.367C591.095,328.245,585.997,333.344,579.729,333.344z M579.729,313.94
					c-4.433,0-8.038,3.605-8.038,8.038c0,4.432,3.606,8.038,8.038,8.038c4.432,0,8.037-3.606,8.037-8.038
					C587.766,317.545,584.16,313.94,579.729,313.94z"/>
			</g>
			<g>
				<path style="fill:#0C8485;" d="M617.426,300.275c-0.001-0.362-0.298-0.657-0.66-0.656l-2.157,0.009
					c-0.362,0.001-0.783-0.266-0.935-0.594l-0.973-1.665c-0.21-0.295-0.234-0.793-0.054-1.107l1.071-1.874
					c0.181-0.314,0.069-0.718-0.244-0.898l-3.995-2.287c-0.314-0.18-0.718-0.07-0.898,0.244l-1.073,1.875
					c-0.179,0.314-0.622,0.545-0.981,0.514l-1.929,0.005c-0.359,0.034-0.804-0.193-0.986-0.506l-1.086-1.865
					c-0.182-0.313-0.586-0.42-0.899-0.238l-3.979,2.318c-0.313,0.183-0.42,0.588-0.237,0.9l1.085,1.865
					c0.182,0.312,0.182,0.759-0.001,0.992c-0.182,0.233-0.718,1.124-0.853,1.393c-0.137,0.269-0.721,0.994-1.082,0.996l-2.157,0.008
					c-0.362,0.001-0.657,0.298-0.655,0.66l0.017,4.606c0.001,0.362,0.299,0.657,0.66,0.655l2.158-0.008
					c0.363-0.001,0.783,0.266,0.937,0.594l0.972,1.665c0.209,0.295,0.233,0.793,0.055,1.107l-1.073,1.875
					c-0.18,0.314-0.07,0.718,0.244,0.898l3.997,2.287c0.313,0.18,0.717,0.07,0.897-0.244l1.072-1.875
					c0.18-0.314,0.622-0.545,0.982-0.514l1.927-0.005c0.36-0.035,0.804,0.193,0.985,0.506l1.088,1.866
					c0.182,0.313,0.587,0.419,0.899,0.237l3.98-2.318c0.312-0.182,0.42-0.586,0.236-0.899l-1.086-1.864
					c-0.182-0.313-0.181-0.759,0.002-0.993c0.183-0.233,0.718-1.125,0.853-1.394c0.137-0.27,0.721-0.995,1.083-0.996l2.156-0.008
					c0.363-0.001,0.657-0.299,0.655-0.661L617.426,300.275z M605.619,308.525c-3.337,0-6.041-2.705-6.041-6.04
					c0-3.336,2.704-6.04,6.041-6.04c3.336,0,6.04,2.704,6.04,6.04C611.659,305.821,608.955,308.525,605.619,308.525z"/>
				<path style="fill:#036B6D;" d="M605.595,309.19c-3.688,0-6.688-3-6.688-6.688c0-3.687,3.001-6.687,6.688-6.687
					s6.688,3,6.688,6.687C612.282,306.19,609.282,309.19,605.595,309.19z M605.595,297.774c-2.608,0-4.728,2.121-4.728,4.728
					c0,2.608,2.12,4.729,4.728,4.729c2.607,0,4.728-2.122,4.728-4.729C610.322,299.895,608.201,297.774,605.595,297.774z"/>
			</g>
		</g>
		<g>
			<path style="fill:#0C8485;" d="M236.139,254.647c-0.001-0.374-0.308-0.679-0.683-0.678l-2.23,0.009
				c-0.374,0.002-0.81-0.274-0.967-0.614l-1.006-1.721c-0.217-0.305-0.242-0.82-0.056-1.145l1.109-1.938
				c0.186-0.325,0.072-0.743-0.253-0.928l-4.13-2.364c-0.325-0.186-0.743-0.072-0.929,0.252l-1.109,1.938
				c-0.186,0.325-0.643,0.564-1.016,0.531l-1.993,0.004c-0.372,0.036-0.831-0.199-1.019-0.523l-1.123-1.927
				c-0.188-0.323-0.606-0.434-0.93-0.246l-4.113,2.396c-0.323,0.189-0.434,0.607-0.246,0.93l1.122,1.928
				c0.188,0.323,0.188,0.785-0.001,1.025c-0.188,0.241-0.742,1.163-0.882,1.441c-0.14,0.277-0.743,1.028-1.118,1.029l-2.23,0.008
				c-0.374,0.002-0.68,0.309-0.678,0.683l0.018,4.76c0.001,0.374,0.308,0.679,0.683,0.678l2.231-0.008
				c0.375-0.001,0.81,0.275,0.967,0.614l1.005,1.721c0.217,0.305,0.242,0.82,0.057,1.144l-1.109,1.938
				c-0.186,0.325-0.073,0.743,0.253,0.929l4.131,2.364c0.324,0.186,0.742,0.072,0.928-0.252l1.109-1.938
				c0.186-0.325,0.643-0.564,1.015-0.531l1.992-0.005c0.372-0.036,0.831,0.199,1.019,0.523l1.124,1.928
				c0.188,0.323,0.607,0.433,0.93,0.245l4.114-2.396c0.323-0.188,0.434-0.607,0.245-0.93l-1.122-1.926
				c-0.188-0.323-0.188-0.785,0.001-1.027c0.189-0.241,0.742-1.163,0.882-1.441c0.14-0.278,0.744-1.028,1.119-1.03l2.23-0.008
				c0.374-0.001,0.679-0.308,0.677-0.682L236.139,254.647z M223.934,263.175c-3.449,0-6.243-2.795-6.243-6.243
				c0-3.449,2.795-6.244,6.243-6.244c3.448,0,6.243,2.795,6.243,6.244C230.177,260.38,227.382,263.175,223.934,263.175z"/>
			<path style="fill:#036B6D;" d="M223.909,263.862c-3.811,0-6.912-3.101-6.912-6.912c0-3.812,3.101-6.913,6.912-6.913
				c3.812,0,6.912,3.101,6.912,6.913C230.821,260.761,227.72,263.862,223.909,263.862z M223.909,252.061
				c-2.695,0-4.888,2.192-4.888,4.888c0,2.695,2.192,4.888,4.888,4.888c2.695,0,4.888-2.193,4.888-4.888
				C228.796,254.254,226.604,252.061,223.909,252.061z"/>
		</g>
		<g>
			<path style="fill:#0C8485;" d="M482.116,405.121c-0.002-0.375-0.309-0.68-0.684-0.678l-2.228,0.008
				c-0.375,0.002-0.811-0.273-0.968-0.613l-1.006-1.721c-0.217-0.305-0.241-0.82-0.056-1.145l1.109-1.938
				c0.186-0.325,0.071-0.743-0.254-0.928l-4.129-2.364c-0.325-0.186-0.743-0.072-0.93,0.252l-1.108,1.938
				c-0.186,0.325-0.644,0.564-1.016,0.531l-1.993,0.004c-0.372,0.036-0.83-0.199-1.02-0.523l-1.122-1.927
				c-0.188-0.323-0.607-0.434-0.931-0.246l-4.112,2.396c-0.323,0.188-0.434,0.607-0.245,0.93l1.122,1.929
				c0.189,0.322,0.189,0.784-0.001,1.024c-0.188,0.241-0.742,1.163-0.882,1.44c-0.14,0.277-0.743,1.027-1.118,1.029l-2.23,0.008
				c-0.374,0.002-0.68,0.31-0.678,0.684l0.018,4.76c0.002,0.375,0.309,0.68,0.684,0.678l2.23-0.008
				c0.375-0.002,0.81,0.275,0.967,0.613l1.006,1.721c0.217,0.305,0.242,0.82,0.057,1.145l-1.109,1.938
				c-0.187,0.325-0.073,0.743,0.252,0.929l4.131,2.364c0.324,0.186,0.742,0.072,0.928-0.253l1.109-1.938
				c0.186-0.324,0.643-0.563,1.015-0.531l1.992-0.005c0.372-0.036,0.831,0.199,1.019,0.522l1.124,1.929
				c0.189,0.323,0.606,0.433,0.93,0.245l4.114-2.396c0.322-0.188,0.434-0.606,0.244-0.93l-1.122-1.927
				c-0.188-0.322-0.188-0.785,0.001-1.026c0.189-0.241,0.742-1.163,0.883-1.44c0.14-0.278,0.744-1.029,1.118-1.03l2.229-0.009
				c0.374,0,0.68-0.308,0.678-0.682L482.116,405.121z M469.911,413.648c-3.449,0-6.243-2.795-6.243-6.243
				c0-3.448,2.794-6.243,6.243-6.243c3.448,0,6.243,2.795,6.243,6.243C476.154,410.853,473.359,413.648,469.911,413.648z"/>
			<path style="fill:#036B6D;" d="M469.886,414.336c-3.811,0-6.912-3.102-6.912-6.912c0-3.813,3.101-6.913,6.912-6.913
				c3.812,0,6.912,3.101,6.912,6.913C476.798,411.234,473.697,414.336,469.886,414.336z M469.886,402.535
				c-2.695,0-4.888,2.192-4.888,4.889c0,2.694,2.192,4.887,4.888,4.887c2.695,0,4.888-2.192,4.888-4.887
				C474.773,404.728,472.581,402.535,469.886,402.535z"/>
		</g>
		<path style="fill:#0F3041;" d="M311.98,70.504c-16.095,0-29.143,13.048-29.143,29.143c0,16.095,13.047,29.142,29.143,29.142
			c16.094,0,29.142-13.047,29.142-29.142C341.122,83.552,328.074,70.504,311.98,70.504z M311.98,111.524
			c-6.56,0-11.878-5.318-11.878-11.877c0-6.56,5.318-11.877,11.878-11.877c6.559,0,11.876,5.317,11.876,11.877
			C323.856,106.206,318.539,111.524,311.98,111.524z"/>
		<path style="fill:#0F3041;" d="M556.306,139.452c-7.678,0-13.902,6.225-13.902,13.903c0,7.679,6.225,13.902,13.902,13.902
			c7.679,0,13.903-6.224,13.903-13.902C570.209,145.676,563.984,139.452,556.306,139.452z M556.306,159.02
			c-3.129,0-5.666-2.537-5.666-5.666c0-3.129,2.537-5.666,5.666-5.666s5.666,2.537,5.666,5.666
			C561.972,156.483,559.435,159.02,556.306,159.02z"/>
		<g>
			<path style="fill:#FAAE3E;" d="M484.394,313.428c0,1.65-1.35,3-3,3H384.09c-1.649,0-2.999-1.35-2.999-3v-13.247
				c0-1.65,1.35-3,2.999-3h97.304c1.65,0,3,1.35,3,3V313.428z"/>
			<rect x="387.357" y="310.088" style="fill:#0C8485;" width="0.924" height="6.34"/>
			<rect x="389.588" y="313.144" style="fill:#0C8485;" width="0.924" height="3.284"/>
			<rect x="391.818" y="313.144" style="fill:#0C8485;" width="0.924" height="3.284"/>
			<rect x="394.048" y="313.144" style="fill:#0C8485;" width="0.925" height="3.284"/>
			<rect x="396.279" y="313.144" style="fill:#0C8485;" width="0.924" height="3.284"/>
			<rect x="398.51" y="310.088" style="fill:#0C8485;" width="0.925" height="6.34"/>
			<rect x="400.74" y="313.144" style="fill:#0C8485;" width="0.924" height="3.284"/>
			<rect x="402.971" y="313.144" style="fill:#0C8485;" width="0.924" height="3.284"/>
			<rect x="405.201" y="313.144" style="fill:#0C8485;" width="0.925" height="3.284"/>
			<rect x="407.432" y="313.144" style="fill:#0C8485;" width="0.924" height="3.284"/>
			<rect x="409.662" y="310.088" style="fill:#0C8485;" width="0.924" height="6.34"/>
			<rect x="411.893" y="313.144" style="fill:#0C8485;" width="0.924" height="3.284"/>
			<rect x="414.123" y="313.144" style="fill:#0C8485;" width="0.924" height="3.284"/>
			<rect x="416.353" y="313.144" style="fill:#0C8485;" width="0.925" height="3.284"/>
			<rect x="418.584" y="313.144" style="fill:#0C8485;" width="0.925" height="3.284"/>
			<rect x="420.814" y="310.088" style="fill:#0C8485;" width="0.924" height="6.34"/>
			<rect x="423.045" y="313.144" style="fill:#0C8485;" width="0.924" height="3.284"/>
			<rect x="425.275" y="313.144" style="fill:#0C8485;" width="0.925" height="3.284"/>
			<rect x="427.506" y="313.144" style="fill:#0C8485;" width="0.924" height="3.284"/>
			<rect x="429.736" y="313.144" style="fill:#0C8485;" width="0.924" height="3.284"/>
			<rect x="431.968" y="310.088" style="fill:#0C8485;" width="0.924" height="6.34"/>
			<rect x="434.197" y="313.144" style="fill:#0C8485;" width="0.924" height="3.284"/>
			<rect x="436.428" y="313.144" style="fill:#0C8485;" width="0.924" height="3.284"/>
			<rect x="438.658" y="313.144" style="fill:#0C8485;" width="0.924" height="3.284"/>
			<rect x="440.889" y="313.144" style="fill:#0C8485;" width="0.924" height="3.284"/>
			<rect x="443.12" y="310.088" style="fill:#0C8485;" width="0.924" height="6.34"/>
			<rect x="443.12" y="310.088" style="fill:#0C8485;" width="0.924" height="6.34"/>
			<rect x="445.352" y="313.144" style="fill:#0C8485;" width="0.924" height="3.284"/>
			<rect x="447.58" y="313.144" style="fill:#0C8485;" width="0.925" height="3.284"/>
			<rect x="449.81" y="313.144" style="fill:#0C8485;" width="0.925" height="3.284"/>
			<rect x="452.041" y="313.144" style="fill:#0C8485;" width="0.926" height="3.284"/>
			<rect x="454.272" y="310.088" style="fill:#0C8485;" width="0.925" height="6.34"/>
			<rect x="456.503" y="313.144" style="fill:#0C8485;" width="0.924" height="3.284"/>
			<rect x="458.732" y="313.144" style="fill:#0C8485;" width="0.924" height="3.284"/>
			<rect x="460.964" y="313.144" style="fill:#0C8485;" width="0.925" height="3.284"/>
			<rect x="463.194" y="313.144" style="fill:#0C8485;" width="0.925" height="3.284"/>
			<rect x="465.426" y="310.088" style="fill:#0C8485;" width="0.924" height="6.34"/>
			<rect x="467.655" y="313.144" style="fill:#0C8485;" width="0.924" height="3.284"/>
			<rect x="469.886" y="313.144" style="fill:#0C8485;" width="0.924" height="3.284"/>
			<rect x="472.117" y="313.144" style="fill:#0C8485;" width="0.924" height="3.284"/>
			<rect x="474.347" y="313.144" style="fill:#0C8485;" width="0.925" height="3.284"/>
			<rect x="476.577" y="310.088" style="fill:#0C8485;" width="0.924" height="6.34"/>
		</g>
		<g>
			<path style="fill:#F1E4C4;" d="M499.405,156.313c-2.732,0-4.947,2.215-4.947,4.948v10.975c0,2.732,2.215,4.948,4.947,4.948
				h14.236v-20.871H499.405z"/>
			<path style="fill:#F05C42;" d="M526.336,156.313h-12.694v20.871h12.694c2.732,0,4.947-2.216,4.947-4.948V161.26
				C531.283,158.528,529.067,156.313,526.336,156.313z"/>
		</g>
		<g>
			<path style="fill:#F1E4C4;" d="M289.169,348.449c0.551,0.632,1.52,0.698,2.152,0.148l4.907-4.277
				c0.634-0.551,0.7-1.519,0.149-2.152l-3.137-3.599c-0.551-0.633-1.519-0.699-2.151-0.148l-4.908,4.276
				c-0.632,0.551-0.699,1.518-0.147,2.15L289.169,348.449z"/>
			
				<rect x="279.915" y="310.1" transform="matrix(0.7541 -0.6568 0.6568 0.7541 -145.9506 265.5055)" style="fill:#FAAE3E;" width="3.268" height="35.075"/>
			
				<rect x="277.544" y="312.167" transform="matrix(0.7541 -0.6568 0.6568 0.7541 -147.8882 264.4347)" style="fill:#0C8485;" width="3.267" height="35.075"/>
			
				<rect x="275.172" y="314.233" transform="matrix(0.7541 -0.6568 0.6568 0.7541 -149.8306 263.3979)" style="fill:#FAAE3E;" width="3.268" height="35.075"/>
			<polygon style="fill:#0C8485;" points="261.58,312.096 264.144,309.863 260.214,307.94 			"/>
			<polygon style="fill:#F1E4C4;" points="264.053,319.622 271.261,313.342 264.144,309.863 261.58,312.096 			"/>
		</g>
		<g>
			<rect x="498.463" y="360.305" style="fill:#0C8485;" width="13" height="16.448"/>
			<rect x="515.963" y="351.695" style="fill:#FAAE3E;" width="13" height="25.058"/>
			<rect x="533.463" y="344.301" style="fill:#F05C42;" width="13" height="32.452"/>
		</g>
		<g>
			<path style="fill:#081928;" d="M547.43,329.631c-3.19,0-46.837,0-46.837,0s0-42.697,0-44.281c0-1.584,3.419-2.063,3.419,0
				c0,2.062,0,40.862,0,40.862s41.025,0,43.418,0C549.823,326.213,550.621,329.631,547.43,329.631z"/>
			<path style="fill:#FAAE3E;" d="M507.798,320.468c-0.186,0-0.373-0.05-0.542-0.156c-0.482-0.299-0.627-0.932-0.327-1.413
				l3.76-6.031c0.297-0.473,0.917-0.624,1.397-0.337l4.003,2.391l12.096-15.692c0.231-0.302,0.613-0.451,0.988-0.384
				c0.375,0.065,0.683,0.335,0.801,0.698l2.365,7.409l9.099-15.968c0.281-0.492,0.906-0.665,1.399-0.384
				c0.492,0.281,0.663,0.907,0.382,1.399l-10.255,18c-0.202,0.354-0.594,0.56-0.998,0.512c-0.406-0.042-0.746-0.32-0.87-0.708
				l-2.482-7.772l-11.455,14.864c-0.315,0.412-0.891,0.521-1.338,0.255l-3.922-2.342l-3.229,5.177
				C508.476,320.296,508.14,320.468,507.798,320.468z"/>
		</g>
		<g>
			<path style="fill:#0F3041;" d="M345.9,236.037c-0.01,0.502,0.394,0.922,0.896,0.931l1.675,0.033
				c0.502,0.009,1.179,0.331,1.502,0.716l1.564,1.855c0.325,0.384,0.742,0.732,0.742,0.732l3.715-0.203c0,0,0.334-0.085,0.634-0.486
				l1.262-1.689c0.3-0.403,0.957-0.724,1.46-0.715l1.213,0.023c0.503,0.011,0.922-0.393,0.932-0.896l0.069-3.599
				c0.01-0.503-0.393-0.922-0.896-0.932l-13.77-0.267c-0.502-0.009-0.92,0.394-0.93,0.897L345.9,236.037z"/>
			<polygon style="fill:#0F3041;" points="348.706,261.644 345.8,261.457 345.735,264.779 348.64,264.966 			"/>
			<polygon style="fill:#0F3041;" points="348.959,248.492 346.649,248.452 346.584,251.773 348.895,251.813 			"/>
			<path style="fill:#FAAE3E;" d="M356.521,251.763c-0.108,0.204-0.212,0.412-0.315,0.626c-0.107-6.827-0.079-12.339-0.079-12.339
				l-3.925,0.188c0,0-0.142,2.626-0.253,6.541l-2.955-0.057l-0.133,6.895l2.885,0.056c-0.062,1.987-0.128,4.083-0.199,6.216
				l-2.807-0.055l-0.134,6.894l2.698,0.052c-0.08,2.158-0.163,4.257-0.244,6.214l-2.575-0.049l-0.134,6.896l2.371,0.046
				c-0.072,1.195-0.142,2.209-0.209,2.978c-0.065,0.738-0.459,2.347-0.693,3.214h0.003c-0.011,0.028-0.025,0.055-0.034,0.084
				c0,0-0.126,0.42-0.371,1.103c-3.13,8.7-11.191,20.157-11.191,20.157c-0.289,0.411-0.115,0.745,0.388,0.741l28.625,0.076
				c0.48-0.149,0.697-0.644,0.482-1.098c0,0-5.485-11.604-8.461-19.687c-0.259-0.704-0.409-1.138-0.409-1.138
				c-0.01-0.028-0.025-0.056-0.038-0.084h0.003c-0.142-0.426-0.491-1.484-0.644-1.977c1.111,1.126,2.413,1.787,3.912,1.816
				c5.911,0.114,9.195-9.696,9.384-19.447c0.189-9.751-2.714-19.683-8.625-19.797C360.194,246.774,358.073,248.723,356.521,251.763z
				 M357.276,266.348c0.184-9.501,3.43-15.746,5.495-15.706c2.066,0.04,5.066,6.405,4.883,15.907
				c-0.185,9.501-3.429,15.744-5.495,15.704C360.094,282.213,357.092,275.849,357.276,266.348z"/>
			<polygon style="fill:#0F3041;" points="348.451,274.737 346.131,274.711 346.067,278.033 348.387,278.057 			"/>
			<path style="fill:#F05C42;" d="M346.704,246.006c0.009-0.502-0.393-0.921-0.896-0.932l-0.772-0.015
				c-0.502-0.01-0.921,0.393-0.931,0.896l-0.16,8.23c-0.01,0.503,0.394,0.922,0.896,0.932l0.773,0.015
				c0.501,0.01,0.921-0.393,0.932-0.896L346.704,246.006z"/>
			<path style="fill:#F05C42;" d="M345.962,260.452l0.001-0.083l0.028-1.458c0.01-0.502-0.393-0.921-0.896-0.931l-0.772-0.015
				c-0.502-0.011-0.921,0.393-0.931,0.895l-0.16,8.233c-0.01,0.503,0.394,0.921,0.896,0.932l0.772,0.015
				c0.502,0.009,0.922-0.393,0.932-0.896C345.832,267.145,345.953,260.956,345.962,260.452z"/>
			<path style="fill:#F05C42;" d="M346.197,272.23c0.01-0.503-0.393-0.922-0.896-0.931l-0.772-0.015
				c-0.502-0.009-0.921,0.393-0.932,0.896l-0.159,8.231c-0.009,0.503,0.394,0.921,0.897,0.932l0.772,0.015
				c0.502,0.01,0.921-0.393,0.932-0.896L346.197,272.23z"/>
		</g>
		<g>
			<path style="fill:#0F3041;" d="M551.396,277.202c2.403-0.026,4.898-1.015,6.849-2.955c1.612-1.607,2.583-3.591,2.892-5.59
				c0.631-2.356,1.234-5.91,4.972-10.917c0.48,0.155,1.03,0.047,1.413-0.334c0.549-0.543,0.551-1.427,0.006-1.977
				c-0.279-0.28-0.65-0.416-1.018-0.411l-10.96,10.913c0.433,0.855,0.305,1.914-0.407,2.623c-0.883,0.878-2.315,0.875-3.192-0.007
				c-0.874-0.882-0.873-2.311,0.01-3.19c0.736-0.732,1.851-0.843,2.712-0.347l10.922-10.875c0.021-0.377-0.112-0.762-0.401-1.052
				c-0.542-0.546-1.425-0.549-1.976-0.005c-0.384,0.383-0.494,0.928-0.339,1.415c-5.532,4.087-9.282,4.386-11.615,5.117
				c-1.753,0.402-3.456,1.312-4.877,2.721c-1.931,1.924-2.934,4.392-2.985,6.777l-3.603,2.918c0,0-1.475,0.772-0.38,1.866
				c1.094,1.094,5.271,5.301,6.891,6.92c1.412,1.413,2.38-0.298,2.38-0.298L551.396,277.202z"/>
			<path style="fill:#0F3041;" d="M540.154,274.477c0.322-0.321,0.849-0.319,1.172,0.003l4.57,4.59
				c0.321,0.323,0.319,0.85-0.003,1.171l-3.416,3.401c-0.322,0.321-0.849,0.32-1.169-0.003l-4.571-4.592
				c-0.321-0.322-0.32-0.849,0.002-1.17L540.154,274.477z"/>
		</g>
		<g>
			<g>
				<path style="fill:#6CAD7E;" d="M604.873,154.283c0.328,0.88,1.131,1.493,2.065,1.575c0.934,0.084,1.835-0.376,2.314-1.186
					c1.415-2.395,3.614-5.088,6.766-6.344c-2.836-6.267-4.521-11.849-5.519-16.389C606.75,134.691,600.166,141.636,604.873,154.283z
					"/>
				<path style="fill:#6CAD7E;" d="M634.223,131.975c-1,4.532-2.684,10.107-5.52,16.363c3.129,1.266,5.313,3.949,6.724,6.33
					c0.477,0.812,1.379,1.268,2.312,1.186c0.935-0.085,1.736-0.699,2.063-1.579C644.487,141.693,637.975,134.757,634.223,131.975z"
					/>
				<path style="fill:#F05C42;" d="M635.705,119.646c0.141-13.934-7.469-23.252-11.354-27.1c-0.589-0.58-1.385-0.902-2.213-0.896
					c-0.826,0.008-1.615,0.346-2.193,0.938c-3.767,3.868-11.065,13.174-10.927,27.056c0,0-0.694,12.822,8.025,30.434h5.227h0.183
					h5.232C636.398,132.468,635.705,119.646,635.705,119.646z"/>
				<rect x="614.861" y="149.615" style="fill:#FAAE3E;" width="15.191" height="3.739"/>
			</g>
			<path style="fill:#FFFFFF;" d="M628.374,113.127c0,3.367-2.73,6.096-6.097,6.096c-3.367,0-6.096-2.729-6.096-6.096
				c0-3.366,2.729-6.096,6.096-6.096C625.644,107.032,628.374,109.761,628.374,113.127z"/>
		</g>
		<path style="fill:#FAAE3E;" d="M573.869,287.015l-1.701,5.152h-2.187l5.565-16.381h2.553l5.59,16.381h-2.261l-1.75-5.152H573.869z
			 M579.241,285.362l-1.606-4.715c-0.364-1.069-0.606-2.042-0.85-2.989h-0.049c-0.242,0.972-0.511,1.968-0.826,2.964l-1.604,4.739
			H579.241z"/>
		<path style="fill:#F05C42;" d="M369.418,325.361c0.923-0.195,2.382-0.34,3.864-0.34c2.114,0,3.475,0.364,4.497,1.191
			c0.85,0.631,1.358,1.604,1.358,2.892c0,1.581-1.044,2.965-2.77,3.597v0.048c1.556,0.389,3.378,1.677,3.378,4.108
			c0,1.409-0.56,2.478-1.385,3.28c-1.142,1.045-2.988,1.531-5.663,1.531c-1.457,0-2.576-0.097-3.28-0.194V325.361z M371.532,332.068
			h1.921c2.236,0,3.547-1.167,3.547-2.746c0-1.92-1.459-2.673-3.597-2.673c-0.972,0-1.531,0.072-1.871,0.145V332.068z
			 M371.532,339.918c0.414,0.072,1.021,0.097,1.774,0.097c2.188,0,4.205-0.802,4.205-3.184c0-2.236-1.922-3.16-4.229-3.16h-1.75
			V339.918z"/>
		<path style="fill:#0C8485;" d="M604.155,104.154c-0.778,0.39-2.333,0.778-4.326,0.778c-4.617,0-8.093-2.916-8.093-8.288
			c0-5.127,3.476-8.603,8.553-8.603c2.043,0,3.331,0.437,3.89,0.729l-0.51,1.726c-0.801-0.388-1.944-0.68-3.306-0.68
			c-3.84,0-6.392,2.454-6.392,6.755c0,4.01,2.309,6.586,6.295,6.586c1.287,0,2.602-0.267,3.451-0.68L604.155,104.154z"/>
		<g>
			<g>
				<g>
					<rect x="308.813" y="234.044" style="fill:#102F41;" width="10.833" height="6.393"/>
					<g>
						<g>
							<g>
								<polygon style="fill:#102F41;" points="323.857,233.088 327.691,231.172 305.089,189.012 301.353,191.011 								"/>
							</g>
						</g>
					</g>
					<g>
						<path style="fill:#D64329;" d="M308.363,190.114c-8.811,4.045-15.445,11.05-15.445,20.863c0,12.032,9.79,21.821,21.819,21.821
							c5.671,0,13.167-3.775,14.724-5.736c1.558-1.96,5.941,0.017,1.766,2.958c-4.175,2.94-10.188,6.167-16.49,6.167
							c-13.9,0-25.21-11.309-25.21-25.211c0-11.094,9.061-22.453,17.177-23.893C309.368,186.612,311.888,188.496,308.363,190.114z"
							/>
					</g>
				</g>
			</g>
			<path style="fill:#D64329;" d="M299.343,243.568c0-3.546,6.988-3.935,15.179-3.935c8.189,0,14.48,0.389,14.48,3.935H299.343z"/>
			<g>
				<g>
					<path style="fill:#6CAD7E;" d="M333.82,211.069c0,10.27-8.326,18.595-18.596,18.595c-10.271,0-18.597-8.325-18.597-18.595
						c0-10.271,8.326-18.597,18.597-18.597C325.495,192.473,333.82,200.798,333.82,211.069z"/>
					<g>
						<g>
							<path style="fill:#0C8485;" d="M329.028,205.681l0.325,0.231h0.301v-0.581l0.951-0.09l0.905,0.672h1.485l0.103-0.096
								c-0.147-0.501-0.315-0.992-0.503-1.475l-0.969,0.017l-0.487-0.534l-0.094-0.857l-0.497,0.272l-0.268,1.049l-0.72-0.765
								l-0.029-0.725l-0.693-0.596l-0.258-0.254h-0.805l0.255,0.717l0.97,0.54l0.168,0.179l-0.209,0.104l0.008,0.568l-0.472,0.197
								l-0.402-0.087l-0.253-0.357l0.655,0.033l0.177-0.238l-1.453-0.98l-0.111-0.416l-0.589,0.532l-0.6-0.122l-0.911,1.184
								l-0.179,0.463l-0.582,0.053l-0.862,0.006l-0.515-0.24l-0.151-1.024l0.185-0.487l0.876-0.192l0.957,0.192l0.117-0.529
								l-0.407-0.096l0.139-0.825l0.962-0.15l0.673-0.951l0.694-0.116l0.628,0.092h0.231l-0.127-0.893l-0.762,0.308l-0.269-0.666
								l-0.441-0.062l-0.084-0.457l0.362-0.393l0.857-0.337l0.222-0.394c-3.279-2.891-7.579-4.649-12.283-4.649
								c-4.082,0-7.858,1.325-10.931,3.563l0.938-0.008l0.418,0.231l0.787,0.17l0.062,0.311l1.254,0.045l-0.17-0.401l-1.113-0.033
								l0.262-0.246l-0.092-0.294h-1.006l1.098-0.819h1.051l0.494,0.681l0.82,0.044l0.494-0.478l0.372,0.185l-0.68,0.665
								c0,0-0.943,0.016-0.897,0.016c0.046,0,0.078,0.65,0.078,0.65l1.143-0.032l0.124-0.308l0.788-0.046l0.093-0.464l-0.464-0.079
								l0.155-0.417l0.356-0.107l1.237,0.06l-0.682,0.619l0.11,0.479l0.71,0.108l-0.046-0.866l0.681-0.355l1.206-0.14l1.747,0.774
								v0.664l0.557,0.139l-0.278,0.527h-0.788l-0.235,0.602l-1.801-0.425l1.416-0.754l-0.54-0.461l-1.222,0.156l-0.107,0.111
								l-0.004-0.003l-0.018,0.027l-0.352,0.366l-0.581,0.049l0.046,0.29l0.204,0.083l-0.008,0.096l-0.473,0.067l-0.036,0.274
								l-0.452,0.023l-0.081-0.544l-0.811,0.247l-1.659,0.971l0.187,0.684l0.463,0.302l0.927,0.129v1.054l0.429-0.07l0.395-0.822
								l0.985-0.313v-1.265l0.549-0.413l1.326,0.313l-0.094,0.836h0.356l0.975-0.48l0.046,1.098l0.71,0.432l-0.03,0.652l-0.68,0.23
								l0.046,0.215l0.819,0.374l-0.016,0.45l-0.237,0.019c-0.001-0.007-0.002-0.012-0.002-0.012l-1.033-0.319l-0.044-0.332h-0.001
								l0.302-0.207v-0.302l-0.326-0.082l-0.08,0.278l-0.57,0.088l-0.057-0.018v0.028l-0.197,0.029l-0.162-0.324l-0.186-0.082
								h-0.406l-0.185,0.151v0.336l0.347,0.116l0.343,0.048l-0.078,0.033l-0.311,0.347l-0.138-0.173l-0.303-0.079l-0.824,0.774
								l0.106,0.089l-1.215,0.673l-1.145,1.19l-0.078,0.53l-1.147,0.753l-0.568,0.573l0.063,1.143l-0.789-0.368l0.006-0.667
								l-2.194,0.001l-1.137,0.574l-0.493,0.91l-0.196,0.722l0.319,0.699l0.896,0.108l1.423-0.952l0.125,0.474l-0.435,0.82
								l1.083,0.184l0.108,1.674l1.484,0.25l0.943-1.09l1.144,0.233l0.402,0.559l1.097-0.064l0.032-0.325l0.603,0.293l0.68,1.067
								l1.175,0.016l0.433,0.758l0.062,0.927l1.299,0.494l1.639,0.017l0.479,0.786l0.727,0.234l-0.139,0.65l-0.796,1.012
								l-0.233,2.239l-0.719,0.569l-1.066-0.034l-0.356,0.618l0.264,1.162l-1.16,1.484l-0.371,0.679l-1.105,0.531l-0.728,0.111
								l-0.029,0.309l0.51,0.146l-0.061,0.332l-0.458,0.44l0.277,0.349l0.551,0.017l-0.031,0.426l-0.146,0.416l-0.048,0.34
								l0.814,0.685l-0.109,0.355l-1.107-0.02l-1.102-0.963l-0.858-1.508l0.12-1.456l-0.649-0.866l0.263-1.467l-0.387-0.109v-3.186
								c0,0-1.082-0.82-1.144-0.82s-0.572-0.137-0.572-0.137l-0.108-0.604l-1.406-1.763l0.138-0.634l0.046-1.035l0.974-0.681
								l-0.138-1.16l-1.422-0.107l-1.113-1.269l-0.789-0.216l-0.51-0.094l0.061-0.463l-0.649-0.093v0.263l-1.624-0.401l-0.653-1
								l0.266-0.485l-1.028-1.5l-0.176-1.098h-0.417l0.138,1.066l0.711,1.097l-0.078,0.434l-0.603-0.092l-0.742-1.266v-1.469
								l-0.772-0.374v-1.06c-0.956,2.238-1.485,4.7-1.485,7.283c0,10.259,8.347,18.604,18.605,18.604
								c5.817,0,11.016-2.684,14.43-6.876h-0.614v-1.238l-0.71-0.956v-1.488l-0.542-0.54l-0.046-0.62l0.689-1.314l-1.307-2.304
								l0.155-1.562l-1.175-0.122l-0.433-0.434h-0.789l-0.402,0.37h-1.391l-0.047,0.124h-0.774l-1.777-2.024l0.015-1.579
								l0.293-0.108l0.11-0.603h-0.418l-0.17-0.634l2.057-1.484v-1.05l1.006-0.559l0.408,0.04h0.828l0.648-0.348l2.088-0.163v1.067
								L329.028,205.681z M323.81,199.046l0.169-0.261l0.611-0.124l0.155,0.743l0.326,0.526l0.216,0.246l0.394,0.155l-0.37,0.441
								l-0.72,0.07h-0.54l0.061-0.642l0.45-0.094l-0.038-0.302l-0.419-0.263l-0.293-0.201V199.046z M322.804,200.208l0.373-0.596
								l0.5-0.116l0.357,0.155l-0.032,0.401l-0.765,0.541h-0.433V200.208z M312.697,202.496l-0.388,0.033l0.021-0.27l0.173-0.215
								l0.233,0.182L312.697,202.496z M314.055,202.02l-0.265,0.023l-0.054,0.254l-0.204,0.128l-0.327,0.027
								c-0.011-0.078-0.019-0.135-0.019-0.135h-0.127v-0.274h0.533l0.11-0.284l0.212-0.005l0.242,0.051L314.055,202.02z"/>
						</g>
					</g>
				</g>
			</g>
		</g>
		<g>
			<g>
				<path style="fill:#FAAF3D;" d="M538.62,228.866c2.549,0.846,5.34,0.714,7.658-0.538c1.983-1.071,3.71-4.094,4.706-6.619
					c0.873-2.221,1.384-3.574,4.052-6.031c3.488-3.212,12.561-2.769,14.261-4.587c1.338-1.427,1.616-3.127,1.739-5.021
					c0.161-2.478,0.048-4.817-0.616-7.128c-0.684-2.397-1.796-4.508-3.302-6.483c-1.794-2.349-4.954-7.959-14.771-8.365
					c-6.102-0.253-11.8,2.239-16.897,6.127c-1.185,0.904-2.42,1.619-3.428,2.694c-2.775,2.963-4.613,6.366-5.687,10.147
					c-1.067,3.766-1.208,7.385-0.325,10.989C527.851,221.564,531.85,226.619,538.62,228.866z M539.339,217.222
					c0.235-2.772,1.496-4.345,3.456-4.179c1.963,0.167,4.124,2.027,3.89,4.8c-0.235,2.771-2.789,5.586-4.753,5.419
					C539.973,223.098,539.104,219.994,539.339,217.222z"/>
			</g>
			<g>
				<path style="fill:#058486;" d="M549.617,190.917c1.712-1.829,4.59-1.96,6.42-0.247c1.829,1.712,1.775,4.488,0.063,6.318
					c-1.714,1.828-4.42,2-6.249,0.288C548.021,195.564,547.904,192.748,549.617,190.917z"/>
			</g>
			<g>
				<path style="fill:#102F41;" d="M557.796,200.569c1.713-1.83,4.608-1.957,6.435-0.246c1.831,1.714,1.832,4.552,0.118,6.381
					c-1.713,1.83-4.404,1.864-6.234,0.151C556.286,205.143,556.082,202.398,557.796,200.569z"/>
			</g>
			<g>
				<path style="fill:#F05C42;" d="M536.436,192.994c1.712-1.83,4.503-2.049,6.331-0.336c1.83,1.714,1.876,4.587,0.162,6.417
					c-1.713,1.829-4.479,1.861-6.31,0.148C534.791,197.51,534.724,194.824,536.436,192.994z"/>
			</g>
			<g>
				<path style="fill:#6DAE7E;" d="M530.293,204.485c1.715-1.828,4.569-2.051,6.398-0.337c1.828,1.712,1.801,4.582,0.088,6.413
					c-1.713,1.829-4.519,1.984-6.348,0.271C528.602,209.118,528.581,206.316,530.293,204.485z"/>
			</g>
		</g>
		<g>
			<circle style="fill:#0C8485;" cx="305.514" cy="283.197" r="18.696"/>
			<g>
				<path style="fill:none;" d="M302.954,274.761c0.352-0.516,0.706-1.021,1.062-1.514c0.441-0.608,0.884-1.197,1.331-1.766
					c-3.642-1.921-5.193-4.032-5.707-6.025c0.379-0.127,0.763-0.244,1.152-0.346c0.463,1.805,1.885,3.724,5.277,5.472
					c1.706-2.084,3.422-3.858,5.02-5.229c0.404,0.126,0.801,0.272,1.192,0.423c-1.598,1.316-3.375,3.131-5.167,5.308
					c3.467,1.539,6.96,1.877,10.143,2.184c1.556,0.152,3.04,0.297,4.426,0.565c0.25,0.429,0.486,0.867,0.702,1.317
					c-1.59-0.404-3.361-0.578-5.239-0.761c-3.357-0.325-7.047-0.681-10.764-2.396c-0.484,0.615-0.967,1.254-1.447,1.917
					c-0.311,0.429-0.62,0.867-0.925,1.313c7.362,3.3,14.664,8.266,18.883,14.845c-0.169,0.428-0.35,0.848-0.548,1.258
					c-4.015-6.706-11.398-11.764-18.848-15.095c-0.042-0.02-0.085-0.038-0.125-0.057c-0.742,1.128-1.462,2.307-2.146,3.522
					c5.58,3.166,8.106,13.711,9.893,21.332c-0.358,0.113-0.721,0.213-1.088,0.305c-1.74-7.42-4.195-17.717-9.351-20.647
					c-2.534,4.71-4.497,9.92-5.134,15.022c-0.132,1.058-0.204,2.11-0.214,3.152c-0.379-0.248-0.749-0.506-1.109-0.78
					c0.031-0.835,0.097-1.674,0.202-2.515c0.654-5.23,2.655-10.559,5.234-15.368c-3.435-1.387-6.707-0.215-9.45,1.745
					c-1.216,0.87-2.327,1.893-3.309,2.922c-0.046-0.504-0.073-1.015-0.076-1.53c0.836-0.817,1.747-1.612,2.728-2.313
					c3.061-2.188,6.742-3.475,10.656-1.824c0.674-1.2,1.382-2.363,2.11-3.482c-4.18-1.769-8.307-2.987-11.814-3.65
					c0.252-0.339,0.517-0.665,0.791-0.985C294.819,271.795,298.875,273.022,302.954,274.761z"/>
				<path style="fill:#F05C42;" d="M304.009,275.224c0.305-0.446,0.613-0.885,0.925-1.313c0.48-0.663,0.962-1.302,1.447-1.917
					c3.717,1.715,7.406,2.071,10.764,2.396c1.878,0.183,3.649,0.357,5.239,0.761c1.168,2.439,1.823,5.168,1.823,8.047
					c0,2.427-0.469,4.743-1.314,6.871C318.673,283.49,311.371,278.523,304.009,275.224z"/>
				<path style="fill:#F05C42;" d="M290.21,281.944c2.743-1.96,6.015-3.132,9.45-1.745c-2.579,4.809-4.58,10.138-5.234,15.368
					c-0.105,0.841-0.171,1.68-0.202,2.515c-4.078-3.101-6.845-7.833-7.322-13.215C287.882,283.837,288.993,282.814,290.21,281.944z"
					/>
				<path style="fill:#F05C42;" d="M301.226,279.698c0.684-1.215,1.404-2.394,2.146-3.522c0.04,0.018,0.083,0.037,0.125,0.057
					c7.449,3.331,14.833,8.388,18.848,15.095c-2.23,4.597-6.289,8.149-11.226,9.703
					C309.332,293.409,306.806,282.864,301.226,279.698z"/>
				<path style="fill:#F05C42;" d="M300.68,280.688c5.155,2.93,7.611,13.227,9.351,20.647c-1.446,0.361-2.959,0.555-4.517,0.555
					c-3.754,0-7.25-1.116-10.182-3.028c0.011-1.042,0.082-2.095,0.214-3.152C296.184,290.608,298.146,285.398,300.68,280.688z"/>
				<path style="fill:#F05C42;" d="M305.347,271.481c-0.446,0.569-0.89,1.159-1.331,1.766c-0.356,0.493-0.71,0.999-1.062,1.514
					c-4.079-1.739-8.135-2.966-11.66-3.677c2.193-2.571,5.069-4.541,8.345-5.628C300.154,267.449,301.705,269.56,305.347,271.481z"
					/>
				<path style="fill:#F05C42;" d="M306.068,270.582c-3.392-1.748-4.814-3.667-5.277-5.472c1.51-0.395,3.092-0.605,4.723-0.605
					c1.941,0,3.813,0.297,5.574,0.849C309.49,266.724,307.774,268.497,306.068,270.582z"/>
				<path style="fill:#F05C42;" d="M307.113,271.084c1.791-2.177,3.568-3.991,5.167-5.308c3.969,1.547,7.284,4.413,9.402,8.057
					c-1.385-0.269-2.87-0.414-4.426-0.565C314.073,272.961,310.58,272.623,307.113,271.084z"/>
				<path style="fill:#F05C42;" d="M300.207,279.201c-3.914-1.651-7.594-0.364-10.656,1.824c-0.98,0.7-1.892,1.495-2.728,2.313
					c0-0.046-0.003-0.092-0.003-0.14c0-4.166,1.37-8.017,3.683-11.128c3.507,0.663,7.634,1.881,11.814,3.65
					C301.589,276.837,300.882,278.001,300.207,279.201z"/>
			</g>
		</g>
	</g>
</g>
</svg>
